<svg xmlns="http://www.w3.org/2000/svg" version="1.1" width="350px" height="350px" style="shape-rendering:geometricPrecision; text-rendering:geometricPrecision; image-rendering:optimizeQuality; fill-rule:evenodd; clip-rule:evenodd" xmlns:xlink="http://www.w3.org/1999/xlink">
<path d="m-.5-.5h350v350H-.5V-.5Z" style="fill:#dae9f0" />
<path d="m46.715,68.062c.833,3.771,1.25,9.379,1.25,16.822,0,9.896-.702,17.341-2.105,22.335-1.404,4.996-3.738,7.492-7.002,7.492H12.595V13.779h25.988c2.967,0,5.119,2.215,6.454,6.644,1.335,4.431,2.003,10.838,2.003,19.225,0,5.372-.32,9.732-.958,13.076-.64,3.347-1.575,5.584-2.808,6.715v1.131c1.461,1.226,2.608,3.724,3.441,7.492Zm-11.659-21.77c0-4.994-.719-7.492-2.157-7.492h-9.073v14.985h9.073c1.438,0,2.157-2.496,2.157-7.493Zm.616,36.189c0-5.464-.787-8.199-2.362-8.199h-9.484v16.398h9.484c1.575,0,2.362-2.732,2.362-8.199Z" style="fill:#f0d7a9;" />
<path d="m84.871,13.779v54.708c0,12.44-.656,22.335-1.969,29.686-1.313,7.351-3.248,12.605-5.804,15.762-2.557,3.156-5.809,4.735-9.758,4.735-3.972,0-7.236-1.579-9.792-4.735-2.557-3.157-4.485-8.411-5.787-15.762-1.301-7.351-1.952-17.246-1.952-29.686V13.779h11.23v52.587c0,6.315.542,11.004,1.626,14.066,1.084,3.063,2.642,4.594,4.674,4.594,2.008,0,3.561-1.531,4.656-4.594,1.096-3.062,1.644-7.751,1.644-14.066V13.779h11.23Z" style="fill:#f0d7a9;" />
<path d="m87.709,114.712V13.779h11.23v100.933h-11.23Z" style="fill:#f0d7a9;" />
<path d="m101.857,114.712V13.779h11.23v67.147h20.03v33.786h-31.261Z" style="fill:#f0d7a9;" />
<path d="m163.93,18.798c2.043,3.346,3.578,8.718,4.605,16.115,1.027,7.399,1.541,17.175,1.541,29.333s-.514,21.936-1.541,29.333c-1.027,7.399-2.562,12.771-4.605,16.115-2.043,3.347-4.651,5.019-7.824,5.019h-21.673V13.779h21.673c3.173,0,5.781,1.674,7.824,5.019Zm-18.267,26.364v38.168h6.882c1.666,0,2.956-1.555,3.869-4.665.913-3.11,1.37-7.917,1.37-14.419s-.457-11.309-1.37-14.419c-.913-3.11-2.203-4.665-3.869-4.665h-6.882Z" style="fill:#f0d7a9;" />
<path d="m172.267,114.712V13.779h11.23v100.933h-11.23Z" style="fill:#f0d7a9;" />
<path d="m221.715,13.779v100.933h-12.771l-11.676-51.315h-.273v51.315h-10.58V13.779h12.908l11.539,50.608h.273V13.779h10.58Z" style="fill:#f0d7a9;" />
<path d="m262.21,114.854h-7.293v-11.309c-1.21,5.089-2.859,8.884-4.948,11.379-2.088,2.496-4.319,3.746-6.693,3.746-6.665,0-11.579-4.429-14.74-13.288-3.162-8.857-4.742-22.618-4.742-41.278,0-18.565,1.586-32.253,4.76-41.066,3.172-8.811,8.068-13.217,14.688-13.217,6.414,0,11.139,3.583,14.175,10.743,3.036,7.164,4.61,17.578,4.726,31.241h-13.251c-.092-1.318-.349-2.732-.771-4.241-.423-1.506-1.044-2.803-1.866-3.887-.821-1.083-1.838-1.626-3.047-1.626-2.328,0-4.098,1.933-5.308,5.796-1.21,3.865-1.814,9.471-1.814,16.822,0,7.634.622,13.43,1.866,17.388s3.109,5.937,5.598,5.937c1.302,0,2.432-.495,3.39-1.484.959-.989,1.701-2.12,2.226-3.393.525-1.272.822-2.237.891-2.898h-5.752v-20.921h17.907v55.556Z" style="fill:#f0d7a9;" />
<path d="m46.321,160.116h-11.539v66.017h-11.23v-66.017h-11.504v-34.917h34.273v34.917Z" style="fill:#f0d7a9;" />
<path d="m82.851,125.2v100.933h-11.23v-35.482h-12.806v35.482h-11.23v-100.933h11.23v34.493h12.806v-34.493h11.23Z" style="fill:#f0d7a9;" />
<path d="m97.002,162.661h18.695v23.184h-18.695v13.146h19.927v27.142h-31.158v-100.933h30.884v25.586h-19.653v11.875Z" style="fill:#f0d7a9;" />
<path d="m142.095,156.299v14.561h18.866v27.848h-18.866v27.425h-11.23v-100.933h31.124v31.1h-19.893Z" style="fill:#f0d7a9;" />
<path d="m199.045,125.2v54.708c0,12.439-.656,22.335-1.969,29.687-1.312,7.351-3.248,12.605-5.803,15.762-2.557,3.156-5.811,4.735-9.76,4.735-3.971,0-7.235-1.579-9.792-4.735-2.557-3.156-4.485-8.411-5.787-15.762-1.301-7.352-1.952-17.247-1.952-29.687v-54.708h11.23v52.587c0,6.314.542,11.004,1.626,14.065,1.083,3.063,2.642,4.594,4.673,4.594,2.01,0,3.562-1.53,4.658-4.594,1.096-3.062,1.643-7.751,1.643-14.065v-52.587h11.23Z" style="fill:#f0d7a9;" />
<path d="m234.582,160.116h-11.538v66.017h-11.23v-66.017h-11.505v-34.917h34.273v34.917Z" style="fill:#f0d7a9;" />
<path d="m270.907,125.2v54.708c0,12.439-.657,22.335-1.969,29.687-1.313,7.351-3.248,12.605-5.804,15.762-2.557,3.156-5.81,4.735-9.759,4.735-3.972,0-7.236-1.579-9.792-4.735-2.557-3.156-4.485-8.411-5.787-15.762-1.301-7.352-1.951-17.247-1.951-29.687v-54.708h11.23v52.587c0,6.314.542,11.004,1.626,14.065,1.084,3.063,2.643,4.594,4.674,4.594,2.009,0,3.562-1.53,4.657-4.594,1.096-3.062,1.644-7.751,1.644-14.065v-52.587h11.23Z" style="fill:#f0d7a9;" />
<path d="m309.799,226.133h-12.977l-3.972-25.729h-7.909v25.729h-11.23v-100.933h24.995c3.766,0,6.454,2.898,8.062,8.694,1.609,5.796,2.414,14.631,2.414,26.505,0,8.672-.457,15.267-1.369,19.791-.913,4.524-2.203,7.634-3.869,9.33v1.414l5.854,35.199Zm-13.147-60.786c0-5.56-.8-8.34-2.396-8.34h-9.313v16.681h9.313c1.597,0,2.396-2.778,2.396-8.34Z" style="fill:#f0d7a9;" />
<path d="m322.546,162.661h18.694v23.184h-18.694v13.146h19.928v27.142h-31.158v-100.933h30.884v25.586h-19.653v11.875Z" style="fill:#f0d7a9;" />
<path d="m46.355,245.879c3.173,8.813,4.759,22.547,4.759,41.207s-1.586,32.396-4.759,41.208c-3.173,8.812-8.08,13.217-14.723,13.217s-11.55-4.404-14.723-13.217c-3.173-8.812-4.759-22.548-4.759-41.208s1.586-32.394,4.759-41.207c3.173-8.811,8.081-13.218,14.723-13.218s11.55,4.407,14.723,13.218Zm-9.364,57.676c1.221-3.816,1.832-9.306,1.832-16.469s-.611-12.651-1.832-16.469c-1.221-3.816-3.008-5.725-5.358-5.725s-4.138,1.908-5.358,5.725c-1.222,3.817-1.832,9.308-1.832,16.469s.61,12.652,1.832,16.469c1.221,3.817,3.007,5.726,5.358,5.726s4.137-1.908,5.358-5.726Z" style="fill:#f0d7a9;" />
<path d="m64.354,267.72v14.561h18.866v27.848h-18.866v27.425h-11.23v-100.934h31.124v31.101h-19.893Z" style="fill:#f0d7a9;" />
<path d="m109.208,267.72v14.561h18.866v27.848h-18.866v27.425h-11.23v-100.934h31.124v31.101h-19.893Z" style="fill:#f0d7a9;" />
<path d="m167.384,337.553h-12.977l-3.972-25.729h-7.909v25.729h-11.23v-100.934h24.995c3.767,0,6.454,2.898,8.063,8.694s2.414,14.631,2.414,26.506c0,8.671-.457,15.267-1.37,19.79-.914,4.524-2.203,7.634-3.869,9.33v1.414l5.855,35.199Zm-13.148-60.786c0-5.56-.799-8.341-2.397-8.341h-9.313v16.682h9.313c1.598,0,2.397-2.779,2.397-8.341Z" style="fill:#f0d7a9;" />
<path d="m194.505,325.819h-13.113l-1.438,11.733h-12.326l13.148-100.934h14.414l13.046,100.934h-12.292l-1.438-11.733Zm-6.711-54c-1.005,8.764-2.066,17.953-3.184,27.565h6.676c-1.142-9.705-2.214-18.895-3.218-27.565h-.274Z" style="fill:#f0d7a9;" />
<path d="m244.337,236.619v100.934h-12.771l-11.676-51.314h-.273v51.314h-10.58v-100.934h12.908l11.539,50.608h.273v-50.608h10.58Z" style="fill:#f0d7a9;" />
<path d="m269.698,269.062c-1.005-2.778-2.409-4.17-4.212-4.17-2.169,0-3.841,1.908-5.016,5.725-1.176,3.817-1.764,9.308-1.764,16.469s.588,12.652,1.764,16.469c1.175,3.817,2.847,5.726,5.016,5.726,1.85,0,3.271-1.484,4.263-4.453.993-2.969,1.559-6.856,1.695-11.662h13.285c-.092,16.397-1.689,28.555-4.794,36.472-3.104,7.916-7.875,11.874-14.312,11.874-6.528,0-11.361-4.429-14.5-13.288-3.139-8.857-4.708-22.569-4.708-41.137s1.569-32.277,4.708-41.137c3.139-8.857,7.972-13.288,14.5-13.288,6.414,0,11.174,3.842,14.278,11.521,3.104,7.682,4.69,19.25,4.759,34.704h-13.25c-.137-3.768-.708-7.044-1.712-9.824Z" style="fill:#f0d7a9;" />
<path d="m298.021,274.081h18.694v23.184h-18.694v13.146h19.928v27.142h-31.158v-100.934h30.884v25.587h-19.653v11.875Z" style="fill:#f0d7a9;" />
<path d="m336.284,223.23c-3.952-3.157-7.997-6.071-12.139-8.74-7.779-5.358-16.196-10.052-25.25-14.082-10.801-4.229-21.484-8.599-32.048-13.11-21.672-9.702-43.684-18.603-66.038-26.707-4.552-3.732-9.731-6.16-15.538-7.284-.44-.93-1.087-1.74-1.942-2.428-10.528-4.344-21.211-8.553-32.048-12.625-2.266-1.619-4.532-3.237-6.798-4.856-10.805-3.708-21.488-7.592-32.048-11.654-4.514-2.905-9.369-4.847-14.567-5.827-3.306-3.92-7.514-5.7-12.625-5.341-5.585-3.359-11.412-6.434-17.481-9.226-3.483-1.076-7.044-1.561-10.683-1.457-3.432-1.503-7.155-2.15-11.168-1.942-4.013-.208-7.736.439-11.168,1.942-3.018-.145-5.931.341-8.74,1.457-2.342,1.899-4.769,3.68-7.284,5.341-5.267,6.345-6.561,13.468-3.885,21.365.637,2.414,2.093,4.033,4.37,4.856.06,2.032,1.031,3.488,2.913,4.37,4.137,1.878,8.021,4.145,11.654,6.798,1.256.476,2.551.638,3.885.486.44.93,1.087,1.74,1.942,2.428,27.154,13.613,54.346,26.723,81.576,39.331,7.219,4.578,14.988,8.138,23.308,10.683,4.364,1.961,8.572,4.389,12.625,7.284,2.653.401,5.243,1.049,7.769,1.942,11.324,6.148,22.977,11.49,34.961,16.024,3.144,1.255,6.057,3.036,8.74,5.341,12.841,4.76,25.465,9.778,37.875,15.053,8.026,4.299,16.442,7.86,25.25,10.683,4.149,2.337,8.68,3.955,13.596,4.856,3.126,2.154,6.687,3.287,10.683,3.399,5.668.458,11.332.944,16.995,1.457,1.974-.006,3.754-.329,5.341-.971,1.254.23,2.225-.093,2.913-.971,6.854.457,12.033-2.132,15.538-7.769,1.815-6.095,3.434-12.245,4.856-18.452-1.629-4.025-3.41-7.91-5.341-11.654Z" style="fill:#dae9f0;" />
<path d="m60.5,119.5c4.036.737,8.036,1.071,12,1,6.187,1.431,12.354,2.431,18.5,3,3.633.017,7.467-.15,11.5-.5-1.667-.333-3.333-.667-5-1,1.167-.167,2.333-.333,3.5-.5,5.543,1.72,11.043,3.053,16.5,4-.453.958-1.119,1.792-2,2.5,1.456.423,1.956,1.256,1.5,2.5-1.558-.845-2.558-.179-3,2-1.388-1.054-2.888-1.22-4.5-.5.828.915,1.828,1.581,3,2-1.333.667-1.333,1.333,0,2-.5.167-1,.333-1.5.5-1.856-1.236-3.689-1.236-5.5,0-.333-.667-.667-1.333-1-2-1.605,3.45-3.272,3.117-5-1-.743,1.408-1.577,2.741-2.5,4-.324-2.069-1.158-2.402-2.5-1-1.316-2.528-2.483-2.528-3.5,0-.451-2.606-1.951-3.939-4.5-4,.667,2.333,1.333,4.667,2,7,3.39-.132,6.723-.299,10-.5-1.333.667-1.333,1.333,0,2-2.667.667-2.667,1.333,0,2-1.439.991-2.439,2.324-3,4-1,.667-2,.667-3,0v-6c-2.309-.756-4.309-.256-6,1.5-2.085-1.147-3.585-.48-4.5,2-.667-1-.667-2,0-3,3.333-1,3.333-2,0-3-.419,1.172-1.085,2.172-2,3,.617-1.595.284-2.928-1-4-1.113,1.211-2.28,1.211-3.5,0-1.655-2.653-3.655-4.986-6-7-.692.525-1.192,1.192-1.5,2-.346-1.718-.846-3.385-1.5-5,.209-.586.543-1.086,1-1.5-.636-1.356-1.803-2.522-3.5-3.5-.5.167-1,.333-1.5.5,1.333.667,1.333,1.333,0,2,3.811,2.068,3.811,4.401,0,7,1.59,1.046,3.09,2.213,4.5,3.5.667,1,.667,2,0,3-2.334-1.17-4.168-2.837-5.5-5-1.268.928-2.601,1.095-4,.5,3.489-3.371,3.822-6.204,1-8.5.09-1.925,1.09-3.092,3-3.5-.752-.671-1.086-1.504-1-2.5Z" style="fill:#f0d7a9" />
<path d="m114.5,139.5c4.755.212,9.755.712,15,1.5,1.668,1.687,3.501,1.854,5.5.5,2.93,1.738,6.097,2.238,9.5,1.5,1.869-4.531,3.536-4.364,5,.5.077,1.25.744,2.083,2,2.5-.333,1.667-.667,3.333-1,5,.948.483,1.948.649,3,.5-.039-1.859.794-3.192,2.5-4,1.419.96,2.919,1.793,4.5,2.5-1.196.654-1.196,1.154,0,1.5,2.221.445,4.555.445,7,0,1.564,1.269,3.231,2.436,5,3.5-1.537,1.11-2.203,2.61-2,4.5,3.088-.568,6.088-.568,9,0,.561,1.926.727,3.926.5,6,1-1.333,2-2.667,3-4-.73,2.521-1.23,5.187-1.5,8-1.508.186-3.175.852-5,2-.543-.06-.876-.393-1-1,1.124-1.414,2.124-2.914,3-4.5-.333-.167-.667-.333-1-.5-2.317,1.32-4.317,2.986-6,5-1.952-.603-3.952-.27-6,1-1.232-.645-2.565-.811-4-.5,2.667-1.333,2.667-2.667,0-4,2.388-.865,3.888-.032,4.5,2.5.667-2.667,1.333-2.667,2,0,.925-.547,1.758-1.213,2.5-2-1.281-2.1-2.948-3.766-5-5-.978.477-1.811,1.143-2.5,2l-1-1c-1.41,2.384-3.41,4.05-6,5-1.113-1.211-2.28-1.211-3.5,0-.692-.525-1.192-1.192-1.5-2-2.033.516-2.033-.15,0-2,1.635,1.349,3.135,1.182,4.5-.5-.667-.333-1.333-.667-2-1,1.474-1.316,3.141-2.316,5-3-2.215-.17-4.215-.837-6-2,1.259-.923,2.592-1.757,4-2.5-1.26-.882-2.426-1.882-3.5-3-.617.949-.451,1.782.5,2.5-1.573,3.108-3.073,6.274-4.5,9.5-1,.333-2,.667-3,1,.497-1.698.33-3.365-.5-5,4.864-.457,5.697-2.124,2.5-5-.423,1.456-1.256,1.956-2.5,1.5,1.165-1.868.832-3.702-1-5.5-.886.825-1.219,1.825-1,3h-4c-.023,2.427-.523,4.76-1.5,7-1.868-3.439-1.368-6.606,1.5-9.5-2.497-1.983-3.664-1.15-3.5,2.5-1.011-.837-2.178-1.17-3.5-1-1.723-1.307-3.557-1.307-5.5,0-.419-1.172-1.085-2.172-2-3-.973,1.892-1.64,3.892-2,6-.333-1-.667-2-1-3-1.183,1.231-2.349,1.231-3.5,0,1.029.204,2.029-.296,3-1.5-.333-.333-.667-.667-1-1,2.538-1.171,3.038-2.671,1.5-4.5-.249,1.124-.749,2.124-1.5,3-1.342-1.402-2.176-1.069-2.5,1-2.018-1.85-3.851-3.85-5.5-6-.333.167-.667.333-1,.5,1.37,1.441,2.37,3.108,3,5-1.5,1.167-3,2.333-4.5,3.5-1.995-2.329-3.162-1.662-3.5,2-.865,1.083-1.865,1.249-3,.5.333-.333.667-.667,1-1-1.184-1.18-1.851-2.68-2-4.5,3.21-4.426,2.21-7.593-3-9.5,5.053-1.4,10.053-1.9,15-1.5Z" style="fill:#f0d7a9" />
<path d="m50.5,88.5c-2.357-.163-4.69.003-7,.5,5.553.831,10.053,3.331,13.5,7.5.626-2.491,1.459-2.491,2.5,0,1.236.746,2.569,1.079,4,1v3h-1c-2.971-1.385-5.804-3.051-8.5-5-.414.457-.914.791-1.5,1-7.545-1.864-15.211-3.03-23-3.5,1.537-1.11,2.204-2.61,2-4.5h-4c3.534-1.548,7.367-2.214,11.5-2,4.133-.214,7.966.452,11.5,2Z" style="fill:#6b4e27" />
<path d="m110.5,117.5c2.288.441,4.621,1.774,7,4,4.011.727,8.011,1.393,12,2,.586-.209,1.086-.543,1.5-1,.36,1.921,1.194,3.588,2.5,5-3.259,1.249-6.259.749-9-1.5-2.31-.497-4.643-.663-7-.5-5.457-.947-10.957-2.28-16.5-4-1.167.167-2.333.333-3.5.5,1.667.333,3.333.667,5,1-4.033.35-7.867.517-11.5.5-6.146-.569-12.313-1.569-18.5-3,1.051-.722,1.718-1.722,2-3,3.984-.219,7.818-.219,11.5,0,1.817-2.145,3.317-2.145,4.5,0,1.333-.667,2.667-1.333,4-2,1.826.544,3.826.544,6,0,2.024,1.273,4.857,2.273,8.5,3,.383-.556.883-.889,1.5-1Z" style="fill:#6b4e27" />
<path d="m171.5,145.5c-1.038,1.608-.371,2.608,2,3,1.333,1,1.333,2,0,3-2.673-1.001-5.007-2.501-7-4.5-5.588-.552-11.255-1.719-17-3.5-1.464-4.864-3.131-5.031-5-.5-3.403.738-6.57.238-9.5-1.5-1.999,1.354-3.832,1.187-5.5-.5-5.245-.788-10.245-1.288-15-1.5,1.718-.724,3.552-1.391,5.5-2,.333.333.667.667,1,1,4.964-1.01,9.797-1.677,14.5-2,1.196.346,1.196.846,0,1.5,1.637.601,3.303,1.101,5,1.5,4.406-.931,8.573-.931,12.5,0,2.943,2.705,5.943,4.705,9,6,3.047-.429,6.214-.429,9.5,0Z" style="fill:#6b4e27" />
<path d="m240.5,170.5c-1.181,1.567-2.847,2.401-5,2.5,1.341,1.295,2.674,1.795,4,1.5-1.787.816-3.454,1.816-5,3-5.036-2.483-5.036-4.65,0-6.5-2.036-.454-3.87-1.287-5.5-2.5-1.285.45-2.452,1.117-3.5,2-1.571-2.593-3.904-3.593-7-3,.219,1.175-.114,2.175-1,3-1.546-1.984-3.213-2.317-5-1-1.852-.589-3.685-1.256-5.5-2-.749-1.135-.583-2.135.5-3,1,1.333,2,1.333,3,0-.204,1.029.296,2.029,1.5,3,.308-.808.808-1.475,1.5-2,3.137.857,6.47.857,10,0,5.874,2.172,11.541,3.838,17,5Z" style="fill:#6b4e27" />
<path d="m205.5,174.5c-7.103,1.605-14.437,2.272-22,2-3.853-.666-7.853-1.333-12-2,1.258.516,2.258-.15,3-2,1.175,1.355,2.175,1.188,3-.5-.228-.399-.562-.565-1-.5,1.825-1.148,3.492-1.814,5-2,1.25-.077,2.083-.744,2.5-2,.595,3.582,1.929,3.916,4,1,.333.667.667,1.333,1,2,1.085-.793,2.252-1.46,3.5-2,.808,1.923,1.308,3.923,1.5,6,.236-2.264.736-4.431,1.5-6.5l-1-1c2.186-1.309,4.353-1.476,6.5-.5.308-.808.808-1.475,1.5-2-.391,1.218.276,2.052,2,2.5-1.333.667-2.333,1.667-3,3,1.333.667,1.333,1.333,0,2,1.484.662,2.817,1.496,4,2.5Z" style="fill:#6b4e27" />
<path d="m212.5,169.5c1.493.945,2.993,1.945,4.5,3,1.789-.909,3.623-1.076,5.5-.5-2.215,1.044-4.548,1.71-7,2,1.237.232,2.237.732,3,1.5-1.699.16-3.366-.006-5-.5l1-1c-2.667-2.635-5.334-3.135-8-1.5-2.26-.738-2.427-1.738-.5-3,2.274,1.311,4.44,1.311,6.5,0Z" style="fill:#6b4e27" />
<path d="m230.5,177.5c-2.062-.372-3.729-.705-5-1,.131-.739-.036-1.406-.5-2-.718.951-1.551,1.117-2.5.5,1.625-.853,1.958-1.853,1-3,1.973-.495,3.973-.662,6-.5.017,2.065.35,4.065,1,6Z" style="fill:#6b4e27" />
<path d="m11.5,122.5c1.052-.149,2.052.017,3,.5,4.026,2.93,8.026,5.763,12,8.5,1.372,1.012,2.705,2.012,4,3-1.373.157-2.707-.01-4-.5-3.741-2.732-7.741-5.066-12-7-1.939-.908-2.939-2.408-3-4.5Z" style="fill:#6b4e27" />
<path d="m116.5,177.5c3.079.804,6.079,1.804,9,3,1.307.653,2.64,1.32,4,2,1.465-1.109,2.465-.609,3,1.5,3.355.488,6.022,1.988,8,4.5-8.567-2.62-16.567-6.286-24-11Z" style="fill:#6b4e27" />
<path d="m245.5,235.5c4.095.308,8.095,1.141,12,2.5,3.721,2.527,7.721,4.527,12,6,.881.708,1.547,1.542,2,2.5-9.07-2.906-17.736-6.573-26-11Z" style="fill:#6b4e27" />
<path d="m338.5,246.5c-3.609,5.805-8.942,8.471-16,8,.203-1.544.87-2.878,2-4-.876-.751-1.876-1.251-3-1.5,1.654-.608,3.321-1.108,5-1.5,4.066.193,8.066-.14,12-1Z" style="fill:#6b4e27" />
<path d="m310.5,249.5c1.291.973,1.291,1.973,0,3,1.545.952,3.212,1.285,5,1,1.052-.149,2.052.017,3,.5-3.726,1.043-3.393,1.543,1,1.5-1.634.661-3.467.994-5.5,1-5.831-.528-11.664-1.028-17.5-1.5-4.114-.115-7.781-1.282-11-3.5.722-.418,1.222-1.084,1.5-2,.333.667.667,1.333,1,2,2.081-.833,4.248-.833,6.5,0,.739.131,1.406-.036,2-.5-1.054-1.388-1.22-2.888-.5-4.5.637,1.803,1.803,3.136,3.5,4,3.594-.926,7.26-1.259,11-1Z" style="fill:#6b4e27" />
<path d="m62.5,100.5h1c.765-.423,1.598-.757,2.5-1,2.337,1.308,4.837,2.308,7.5,3,1.657,3.076,3.49,3.743,5.5,2,1.766.733,3.599,1.067,5.5,1h4c.157,1.373-.01,2.707-.5,4-1.507-1.035-3.007-.868-4.5.5-1.259.923-2.592,1.757-4,2.5.774,1.211,1.607,1.211,2.5,0,.725,1.658,1.892,2.158,3.5,1.5-.457-.414-.791-.914-1-1.5,2.807-1.488,5.641-2.821,8.5-4,2.724.303,5.224,1.136,7.5,2.5-1.333.333-2.667.667-4,1,3.796.924,7.462,1.258,11,1,1.939.908,2.939,2.408,3,4.5-.617.111-1.117.444-1.5,1-3.643-.727-6.476-1.727-8.5-3-2.174.544-4.174.544-6,0-1.333.667-2.667,1.333-4,2-1.183-2.145-2.683-2.145-4.5,0-3.682-.219-7.516-.219-11.5,0-1.603,1.177-2.936,1.011-4-.5.667-.333,1.333-.667,2-1-1.27-.9-2.27-2.066-3-3.5.345,1.882-.155,3.882-1.5,6-1.32-.299-2.82-.466-4.5-.5-1.488-1.717-3.321-2.884-5.5-3.5-.354,2.307-1.354,2.641-3,1-.945.405-1.612,1.072-2,2-.085-1.585-.251-2.918-.5-4-.667.667-1.333,1.333-2,2-1.849-1.093-3.516-2.426-5-4-.333.667-.667,1.333-1,2-1.811-1.327-3.811-2.327-6-3,.667-.667,1.333-1.333,2-2-.438-1.006-1.104-1.006-2,0-.498-1.103-.831-2.103-1-3-1.981.605-2.315,1.605-1,3-.876.751-1.876,1.251-3,1.5,3.816,1.249,3.65,2.415-.5,3.5-1.625-.789-3.125-1.789-4.5-3,.59-1.299,1.59-2.132,3-2.5-1.172-.419-2.172-1.085-3-2,2.416-1.161,4.416-2.828,6-5-.333-.333-.667-.667-1-1,3.899-1.371,7.899-2.538,12-3.5.692.525,1.192,1.192,1.5,2,3.262-1.341,3.762-1.008,1.5,1,1.835.928,2.168,2.094,1,3.5,1.921.36,3.588,1.194,5,2.5,2.695-1.678,5.361-3.344,8-5Z" style="fill:#e3bb77" />
<path d="m79.5,99.5c5.263-.369,9.596,1.464,13,5.5,5.352,1.009,10.352,3.009,15,6,10.874,4.182,21.874,8.182,33,12,2.333,1.667,4.667,3.333,7,5,11.159,4.193,22.159,8.527,33,13,.881.708,1.547,1.542,2,2.5-2.971.567-5.805,1.567-8.5,3-.671-.752-1.504-1.086-2.5-1-3.286-.429-6.453-.429-9.5,0-3.057-1.295-6.057-3.295-9-6-3.927-.931-8.094-.931-12.5,0-1.697-.399-3.363-.899-5-1.5,1.196-.654,1.196-1.154,0-1.5-4.703.323-9.536.99-14.5,2-.333-.333-.667-.667-1-1-1.948.609-3.782,1.276-5.5,2-4.947-.4-9.947.1-15,1.5,5.21,1.907,6.21,5.074,3,9.5.149,1.82.816,3.32,2,4.5-.333.333-.667.667-1,1,1.135.749,2.135.583,3-.5.338-3.662,1.505-4.329,3.5-2,1.5-1.167,3-2.333,4.5-3.5-.63-1.892-1.63-3.559-3-5,.333-.167.667-.333,1-.5,1.649,2.15,3.482,4.15,5.5,6,.324-2.069,1.158-2.402,2.5-1,.751-.876,1.251-1.876,1.5-3,1.538,1.829,1.038,3.329-1.5,4.5.333.333.667.667,1,1-.971,1.204-1.971,1.704-3,1.5,1.151,1.231,2.317,1.231,3.5,0,.333,1,.667,2,1,3,.36-2.108,1.027-4.108,2-6,.915.828,1.581,1.828,2,3,1.943-1.307,3.777-1.307,5.5,0,1.909,2.762,2.909,5.595,3,8.5-2.252-.05-3.918-1.216-5-3.5-.925,1.141-1.759,1.141-2.5,0-.333,1.667-.667,3.333-1,5-.667-2.667-1.333-2.667-2,0-3.11-1.173-3.277-.673-.5,1.5-.333.333-.667.667-1,1-1.833-.471-3.666-1.304-5.5-2.5-.167.333-.333.667-.5,1,.645,1.232.811,2.565.5,4,.893-1.211,1.726-1.211,2.5,0-1.229.781-2.562,1.281-4,1.5,1.671,1.844,3.671,2.51,6,2-1-.333-2-.667-3-1,1.27-.9,2.27-2.066,3-3.5,1.656,1.522,2.823,1.189,3.5-1,.333,1,.667,2,1,3,.333-.333.667-.667,1-1,1.6,1.366,3.433,2.366,5.5,3-.774,1.211-1.607,1.211-2.5,0-.928,1.835-2.094,2.168-3.5,1l-3,3c.809,1.571,1.143,3.238,1,5-2.921-1.196-5.921-2.196-9-3-28.039-12.983-56.039-26.483-84-40.5-.881-.708-1.547-1.542-2-2.5-1.295-.988-2.628-1.988-4-3-.557-2.449-.557-4.782,0-7,1.501,1.252,3.167,2.252,5,3-.561-1.566.106-2.899,2-4,.781,1.237,1.781,2.237,3,3,1.196-.346,1.196-.846,0-1.5,2-.667,4-.667,6,0,.455,3.742,1.788,4.242,4,1.5-1.315-2.996-3.648-4.496-7-4.5,1.756-.202,3.422-.702,5-1.5-.477-.978-1.143-1.811-2-2.5,3.533-.903,6.867-.57,10,1-2.759,2.484-2.426,3.65,1,3.5-.039-1.859.794-3.192,2.5-4,.728,3.564,2.228,3.898,4.5,1-.086.996.248,1.829,1,2.5-1.91.408-2.91,1.575-3,3.5,2.822,2.296,2.489,5.129-1,8.5,1.399.595,2.732.428,4-.5,1.332,2.163,3.166,3.83,5.5,5,.667-1,.667-2,0-3-1.41-1.287-2.91-2.454-4.5-3.5,3.811-2.599,3.811-4.932,0-7,1.333-.667,1.333-1.333,0-2,.5-.167,1-.333,1.5-.5,1.697.978,2.864,2.144,3.5,3.5-.457.414-.791.914-1,1.5.654,1.615,1.154,3.282,1.5,5,.308-.808.808-1.475,1.5-2,2.345,2.014,4.345,4.347,6,7,1.22,1.211,2.387,1.211,3.5,0,1.284,1.072,1.617,2.405,1,4,.915-.828,1.581-1.828,2-3,3.333,1,3.333,2,0,3-.667,1-.667,2,0,3,.915-2.48,2.415-3.147,4.5-2,1.691-1.756,3.691-2.256,6-1.5v6c1,.667,2,.667,3,0,.561-1.676,1.561-3.009,3-4-2.667-.667-2.667-1.333,0-2-1.333-.667-1.333-1.333,0-2-3.277.201-6.61.368-10,.5-.667-2.333-1.333-4.667-2-7,2.549.061,4.049,1.394,4.5,4,1.017-2.528,2.184-2.528,3.5,0,1.342-1.402,2.176-1.069,2.5,1,.923-1.259,1.757-2.592,2.5-4,1.728,4.117,3.395,4.45,5,1,.333.667.667,1.333,1,2,1.811-1.236,3.644-1.236,5.5,0,.5-.167,1-.333,1.5-.5-1.333-.667-1.333-1.333,0-2-1.172-.419-2.172-1.085-3-2,1.612-.72,3.112-.554,4.5.5.442-2.179,1.442-2.845,3-2,.456-1.244-.044-2.077-1.5-2.5.881-.708,1.547-1.542,2-2.5,2.357-.163,4.69.003,7,.5,2.741,2.249,5.741,2.749,9,1.5-1.306-1.412-2.14-3.079-2.5-5-.414.457-.914.791-1.5,1-3.989-.607-7.989-1.273-12-2-2.379-2.226-4.712-3.559-7-4-.061-2.092-1.061-3.592-3-4.5-3.538.258-7.204-.076-11-1,1.333-.333,2.667-.667,4-1-2.276-1.364-4.776-2.197-7.5-2.5-2.859,1.179-5.693,2.512-8.5,4,.209.586.543,1.086,1,1.5-1.608.658-2.775.158-3.5-1.5-.893,1.211-1.726,1.211-2.5,0,1.408-.743,2.741-1.577,4-2.5,1.493-1.368,2.993-1.535,4.5-.5.49-1.293.657-2.627.5-4h-4c.418-.722,1.084-1.222,2-1.5-1.466-.635-2.8-1.469-4-2.5-1.505,2.631-2.171,2.297-2-1-3.017-.056-3.35-.39-1-1Z" style="fill:#e3bb77" />
<path d="m149.5,143.5c5.745,1.781,11.412,2.948,17,3.5,1.993,1.999,4.327,3.499,7,4.5,1.333-1,1.333-2,0-3-2.371-.392-3.038-1.392-2-3,.996-.086,1.829.248,2.5,1,2.695-1.433,5.529-2.433,8.5-3,5.98,1.157,11.313,3.657,16,7.5,23.018,8.344,45.684,17.51,68,27.5.03.997-.47,1.664-1.5,2-5.338-3.113-11.005-5.447-17-7l-1,1c-1.944-1.721-4.11-3.054-6.5-4-5.459-1.162-11.126-2.828-17-5-3.53.857-6.863.857-10,0-.692.525-1.192,1.192-1.5,2-1.204-.971-1.704-1.971-1.5-3-1,1.333-2,1.333-3,0-1.083.865-1.249,1.865-.5,3,1.815.744,3.648,1.411,5.5,2-2.06,1.311-4.226,1.311-6.5,0-1.927,1.262-1.76,2.262.5,3-.333.667-.667,1.333-1,2-1.183-1.004-2.516-1.838-4-2.5,1.333-.667,1.333-1.333,0-2,.667-1.333,1.667-2.333,3-3-1.724-.448-2.391-1.282-2-2.5-.692.525-1.192,1.192-1.5,2-2.147-.976-4.314-.809-6.5.5l1,1c-.764,2.069-1.264,4.236-1.5,6.5-.192-2.077-.692-4.077-1.5-6-1.248.54-2.415,1.207-3.5,2-.333-.667-.667-1.333-1-2-2.071,2.916-3.405,2.582-4-1-.417,1.256-1.25,1.923-2.5,2,.27-2.813.77-5.479,1.5-8-1,1.333-2,2.667-3,4,.227-2.074.061-4.074-.5-6-2.912-.568-5.912-.568-9,0-.203-1.89.463-3.39,2-4.5-1.769-1.064-3.436-2.231-5-3.5-2.445.445-4.779.445-7,0-1.196-.346-1.196-.846,0-1.5-1.581-.707-3.081-1.54-4.5-2.5-1.706.808-2.539,2.141-2.5,4-1.052.149-2.052-.017-3-.5.333-1.667.667-3.333,1-5-1.256-.417-1.923-1.25-2-2.5Z" style="fill:#e3bb77" />
<path d="m176.5,171.5c.438-.065.772.101,1,.5-.825,1.688-1.825,1.855-3,.5-.742,1.85-1.742,2.516-3,2,4.147.667,8.147,1.334,12,2,1.561.748,2.895,1.914,4,3.5-1.863,1.418-2.363,3.251-1.5,5.5,1.193-1.478,1.693-2.812,1.5-4,1.299.59,2.132,1.59,2.5,3,.17-2.215.837-4.215,2-6,.388.928,1.055,1.595,2,2-.027-1.288.973-2.288,3-3,.667,1.333,1.333,1.333,2,0,1.779,1.517,1.279,2.351-1.5,2.5,2.333.333,4.667.667,7,1-.667.333-1.333.667-2,1,1.449,1.117,3.116,1.784,5,2-1.894,1.079-2.227,2.413-1,4-1.284.684-2.451.517-3.5-.5-.626,2.491-1.459,2.491-2.5,0-1.114,1.223-1.281,2.556-.5,4h5c1.397,2.568,2.564,2.401,3.5-.5-.145-.772-.478-1.439-1-2,2.307-.337,4.14.496,5.5,2.5,1.487-.753,1.654-1.586.5-2.5,2.254-1.775,3.921-1.108,5,2-.405.945-1.072,1.612-2,2,1,.333,2,.667,3,1-1.104,1.131-.771,1.965,1,2.5,1.247-1.506,1.247-3.006,0-4.5,2.732-.398,4.565-1.898,5.5-4.5.667,1.333,1.333,1.333,2,0,.163,1.887-.671,3.387-2.5,4.5,1,.333,2,.667,3,1,1.333.667,1.333,1.333,0,2,1,.667,2,.667,3,0l-1-1c2.227-.121,4.06-.954,5.5-2.5,1.362,1.936,3.195,3.269,5.5,4,1.168,1.406.835,2.572-1,3.5,1.146.645,2.146,1.478,3,2.5.563-2.209,1.896-3.709,4-4.5-.088-1.578-.088-3.078,0-4.5.787.742,1.453,1.575,2,2.5-1.211,1.113-1.211,2.28,0,3.5-1.03.054-2.197.388-3.5,1-.495,1.973-.662,3.973-.5,6,4.798.399,8.798,2.399,12,6,2.693-.645,5.193-.645,7.5,0,2.168,1.322,2.001,1.989-.5,2-2.797.467-4.131,2.133-4,5-1.322-.17-2.489.163-3.5,1-.333-1.333-.667-2.667-1-4-.654,1.196-1.154,1.196-1.5,0,1.09-1.109,1.09-2.109,0-3-1.032,1.54-2.365,2.04-4,1.5-1.211-1.113-1.211-2.28,0-3.5-1.507-1.239-2.674-.905-3.5,1l-1-1c-1.648,1.217-3.481,2.05-5.5,2.5.667.333,1.333.667,2,1-1.945-.128-3.778.038-5.5.5-1.377-2.092-3.21-3.758-5.5-5,.193,1.188-.307,2.522-1.5,4-1.293-1.786-1.793-3.453-1.5-5-.927,1.613-1.761,3.279-2.5,5-.451-2.429-1.285-2.596-2.5-.5,2.784,2.08,2.451,2.747-1,2-.522-.561-.855-1.228-1-2,1.115-1.393,1.615-2.893,1.5-4.5-1.816-.829-3.649-1.663-5.5-2.5,1.123-1.044,2.456-1.71,4-2-2.667-.667-2.667-1.333,0-2l-1.5-1.5c-1,1.333-2,2.667-3,4-1.667-1.333-3.333-1.333-5,0-1.378-2.354-2.878-2.354-4.5,0-3.235-.531-6.402-1.198-9.5-2-.414.457-.914.791-1.5,1-4.901-3.15-6.401-2.15-4.5,3,1.581-2.075,3.415-2.075,5.5,0-.209.586-.543,1.086-1,1.5,1.504,1.491,2.337,3.324,2.5,5.5.893-1.211,1.726-1.211,2.5,0-1.189.929-2.522,1.262-4,1-12.34-4.669-24.34-10.169-36-16.5-2.601-.92-5.268-1.587-8-2-4.173-2.981-8.506-5.481-13-7.5-1.978-2.512-4.645-4.012-8-4.5-.535-2.109-1.535-2.609-3-1.5-1.36-.68-2.693-1.347-4-2,.143-1.762-.191-3.429-1-5l3-3c1.406,1.168,2.572.835,3.5-1,.893,1.211,1.726,1.211,2.5,0-2.067-.634-3.9-1.634-5.5-3-.333.333-.667.667-1,1-.333-1-.667-2-1-3-.677,2.189-1.844,2.522-3.5,1-.73,1.434-1.73,2.6-3,3.5,1,.333,2,.667,3,1-2.329.51-4.329-.156-6-2,1.438-.219,2.771-.719,4-1.5-.774-1.211-1.607-1.211-2.5,0,.311-1.435.145-2.768-.5-4,.167-.333.333-.667.5-1,1.834,1.196,3.667,2.029,5.5,2.5.333-.333.667-.667,1-1-2.777-2.173-2.61-2.673.5-1.5.667-2.667,1.333-2.667,2,0,.333-1.667.667-3.333,1-5,.741,1.141,1.575,1.141,2.5,0,1.082,2.284,2.748,3.45,5,3.5-.091-2.905-1.091-5.738-3-8.5,1.322-.17,2.489.163,3.5,1-.164-3.65,1.003-4.483,3.5-2.5-2.868,2.894-3.368,6.061-1.5,9.5.977-2.24,1.477-4.573,1.5-7h4c-.219-1.175.114-2.175,1-3,1.832,1.798,2.165,3.632,1,5.5,1.244.456,2.077-.044,2.5-1.5,3.197,2.876,2.364,4.543-2.5,5,.83,1.635.997,3.302.5,5,1-.333,2-.667,3-1,1.427-3.226,2.927-6.392,4.5-9.5-.951-.718-1.117-1.551-.5-2.5,1.074,1.118,2.24,2.118,3.5,3-1.408.743-2.741,1.577-4,2.5,1.785,1.163,3.785,1.83,6,2-1.859.684-3.526,1.684-5,3,.667.333,1.333.667,2,1-1.365,1.682-2.865,1.849-4.5.5-2.033,1.85-2.033,2.516,0,2,.308.808.808,1.475,1.5,2,1.22-1.211,2.387-1.211,3.5,0,2.59-.95,4.59-2.616,6-5l1,1c.689-.857,1.522-1.523,2.5-2,2.052,1.234,3.719,2.9,5,5-.742.787-1.575,1.453-2.5,2-.667-2.667-1.333-2.667-2,0-.612-2.532-2.112-3.365-4.5-2.5,2.667,1.333,2.667,2.667,0,4,1.435-.311,2.768-.145,4,.5,2.048-1.27,4.048-1.603,6-1,1.683-2.014,3.683-3.68,6-5,.333.167.667.333,1,.5-.876,1.586-1.876,3.086-3,4.5.124.607.457.94,1,1Z" style="fill:#e3bb77" />
<path d="m325.5,220.5c-1.413,1.491-2.913,2.158-4.5,2-1.803-1.984-2.803-3.984-3-6-1.202,4.293-.035,7.793,3.5,10.5-.544.717-1.211,1.217-2,1.5-.992.172-1.658-.162-2-1-.42-1.594-1.086-3.094-2-4.5.145-.772.478-1.439,1-2-3.258-.003-5.925-1.17-8-3.5,1.354-.706,3.021-.706,5,0,1.196-.346,1.196-.846,0-1.5-1.87-1.366-3.87-2.533-6-3.5-1.303,1.218-2.303.885-3-1-1.542,1.247-3.042,1.247-4.5,0-.333.667-.667,1.333-1,2-1.491-1.504-3.324-2.337-5.5-2.5-1.333-.667-1.333-1.333,0-2-1-.667-2-.667-3,0,.951.718,1.117,1.551.5,2.5-.923-1.259-1.757-2.592-2.5-4-2.737-.569-4.237-2.236-4.5-5-.689.857-1.522,1.523-2.5,2-.925-1.141-1.759-1.141-2.5,0-.928-1.835-2.094-2.168-3.5-1-1.672-2.606-2.006-5.273-1-8,1.052.149,2.052-.017,3-.5-.951-.718-1.117-1.551-.5-2.5.915.828,1.581,1.828,2,3,.333-.333.667-.667,1-1,.7,1.532,1.866,2.532,3.5,3,.168-1.447.834-3.113,2-5,1.196.346,1.196.846,0,1.5,1.124.249,2.124.749,3,1.5-1.524,1.193-3.524,2.526-6,4,1.556,2.201,2.723,2.201,3.5,0,1.011.837,2.178,1.17,3.5,1-.149,1.052.017,2.052.5,3,1.419-.96,2.919-1.793,4.5-2.5-.667-.667-1.333-1.333-2-2,2.429-.159,4.762-.492,7-1,.333.333.667.667,1,1-1.185,1.353-2.519,2.52-4,3.5.789,1.988,1.955,2.321,3.5,1,.034,1.68.201,3.18.5,4.5,1.576.388,2.909-.112,4-1.5,1.141-.925,1.141-1.759,0-2.5.833-.167,1.667-.333,2.5-.5,2.258,1.878,4.425,3.211,6.5,4,.498-1.103.831-2.103,1-3,.762,1.128,1.429,2.295,2,3.5-1.333.667-2.667,1.333-4,2,2.189.677,2.522,1.844,1,3.5,1.223,1.114,2.556,1.281,4,.5-1.473-.71-2.14-1.876-2-3.5,1.052-.149,2.052.017,3,.5-1.134,1.016-.801,1.683,1,2-.951.718-1.117,1.551-.5,2.5l3-3c.645,1.146,1.478,2.146,2.5,3-1.151,1.231-2.317,1.231-3.5,0-.749,1.135-.583,2.135.5,3,2.366-1.484,3.699-.817,4,2Z" style="fill:#e3bb77" />
<path d="m325.5,206.5c4.265,2.749,8.431,5.749,12.5,9,1.989,3.855,3.823,7.855,5.5,12-1.464,6.391-3.131,12.724-5,19-3.934.86-7.934,1.193-12,1,1.644-.816,2.81-2.15,3.5-4,.333.333.667.667,1,1,.483-.948.649-1.948.5-3,4.445-.001,5.778-2.001,4-6,1.606-2.09,2.106-4.424,1.5-7-.333.667-.667,1.333-1,2-.85-.924-1.85-.924-3,0-1.221-.772-2.221-1.772-3-3-1.459,1.932-2.625,3.932-3.5,6-.549-2.187-1.715-2.854-3.5-2-.985-1.314-2.152-2.314-3.5-3,.789-.283,1.456-.783,2-1.5-3.535-2.707-4.702-6.207-3.5-10.5.197,2.016,1.197,4.016,3,6,1.587.158,3.087-.509,4.5-2,.876.131,1.543-.202,2-1-.502-1.216-.835-2.383-1-3.5.808-.308,1.475-.808,2-1.5-2.445-.192-4.445-1.692-6-4.5,1.556-.72,2.556-1.887,3-3.5Z" style="fill:#e3bb77" />
<path d="m50.5,88.5c3.747-.108,7.414.392,11,1.5,6.249,2.875,12.249,6.042,18,9.5-2.35.61-2.017.944,1,1-.171,3.297.495,3.631,2,1,1.2,1.031,2.534,1.865,4,2.5-.916.278-1.582.778-2,1.5-1.901.067-3.734-.267-5.5-1-2.01,1.743-3.843,1.076-5.5-2-2.663-.692-5.163-1.692-7.5-3-.902.243-1.735.577-2.5,1v-3c-1.431.079-2.764-.254-4-1-1.041-2.491-1.874-2.491-2.5,0-3.447-4.169-7.947-6.669-13.5-7.5,2.31-.497,4.643-.663,7-.5Z" style="fill:#a27637" />
<path d="m27.5,88.5h4c.204,1.89-.463,3.39-2,4.5,7.789.47,15.455,1.636,23,3.5.586-.209,1.086-.543,1.5-1,2.696,1.949,5.529,3.615,8.5,5-2.639,1.656-5.305,3.322-8,5-1.412-1.306-3.079-2.14-5-2.5,1.168-1.406.835-2.572-1-3.5,2.262-2.008,1.762-2.341-1.5-1-.308-.808-.808-1.475-1.5-2-4.101.962-8.101,2.129-12,3.5.333.333.667.667,1,1-1.584,2.172-3.584,3.839-6,5,.828.915,1.828,1.581,3,2-1.41.368-2.41,1.201-3,2.5,1.375,1.211,2.875,2.211,4.5,3,4.15-1.085,4.316-2.251.5-3.5,1.124-.249,2.124-.749,3-1.5-1.315-1.395-.981-2.395,1-3,.169.897.502,1.897,1,3,.896-1.006,1.562-1.006,2,0-.667.667-1.333,1.333-2,2,2.189.673,4.189,1.673,6,3,.333-.667.667-1.333,1-2,1.484,1.574,3.151,2.907,5,4,.667-.667,1.333-1.333,2-2,.249,1.082.415,2.415.5,4,.388-.928,1.055-1.595,2-2,1.646,1.641,2.646,1.307,3-1,2.179.616,4.012,1.783,5.5,3.5,1.68.034,3.18.201,4.5.5,1.345-2.118,1.845-4.118,1.5-6,.73,1.434,1.73,2.6,3,3.5-.667.333-1.333.667-2,1,1.064,1.511,2.397,1.677,4,.5-.282,1.278-.949,2.278-2,3-3.964.071-7.964-.263-12-1-2.272,2.898-3.772,2.564-4.5-1-1.706.808-2.539,2.141-2.5,4-3.426.15-3.759-1.016-1-3.5-3.133-1.57-6.467-1.903-10-1,.857.689,1.523,1.522,2,2.5-1.578.798-3.244,1.298-5,1.5,3.352.004,5.685,1.504,7,4.5-2.212,2.742-3.545,2.242-4-1.5-2-.667-4-.667-6,0,1.196.654,1.196,1.154,0,1.5-1.219-.763-2.219-1.763-3-3-1.894,1.101-2.561,2.434-2,4-1.833-.748-3.499-1.748-5-3-.557,2.218-.557,4.551,0,7-3.974-2.737-7.974-5.57-12-8.5-.948-.483-1.948-.649-3-.5-2.344-.847-3.844-2.514-4.5-5-2.756-8.132-1.423-15.466,4-22,2.589-1.711,5.089-3.545,7.5-5.5,2.893-1.149,5.893-1.649,9-1.5Z" style="fill:#a27637" />
<path d="m240.5,170.5c2.39.946,4.556,2.279,6.5,4l1-1c5.995,1.553,11.662,3.887,17,7,1.03-.336,1.53-1.003,1.5-2,10.878,4.645,21.878,9.145,33,13.5,9.323,4.149,17.99,8.983,26,14.5-.444,1.613-1.444,2.78-3,3.5,1.555,2.808,3.555,4.308,6,4.5-.525.692-1.192,1.192-2,1.5.165,1.117.498,2.284,1,3.5-.457.798-1.124,1.131-2,1-.301-2.817-1.634-3.484-4-2-1.083-.865-1.249-1.865-.5-3,1.183,1.231,2.349,1.231,3.5,0-1.022-.854-1.855-1.854-2.5-3l-3,3c-.617-.949-.451-1.782.5-2.5-1.801-.317-2.134-.984-1-2-.948-.483-1.948-.649-3-.5-.14,1.624.527,2.79,2,3.5-1.444.781-2.777.614-4-.5,1.522-1.656,1.189-2.823-1-3.5,1.333-.667,2.667-1.333,4-2-.571-1.205-1.238-2.372-2-3.5-.169.897-.502,1.897-1,3-2.075-.789-4.242-2.122-6.5-4-.833.167-1.667.333-2.5.5,1.141.741,1.141,1.575,0,2.5-1.091,1.388-2.424,1.888-4,1.5-.299-1.32-.466-2.82-.5-4.5-1.545,1.321-2.711.988-3.5-1,1.481-.98,2.815-2.147,4-3.5-.333-.333-.667-.667-1-1-2.238.508-4.571.841-7,1,.667.667,1.333,1.333,2,2-1.581.707-3.081,1.54-4.5,2.5-.483-.948-.649-1.948-.5-3-1.322.17-2.489-.163-3.5-1-.777,2.201-1.944,2.201-3.5,0,2.476-1.474,4.476-2.807,6-4-.876-.751-1.876-1.251-3-1.5,1.196-.654,1.196-1.154,0-1.5-1.166,1.887-1.832,3.553-2,5-1.634-.468-2.8-1.468-3.5-3-.333.333-.667.667-1,1-.419-1.172-1.085-2.172-2-3-.617.949-.451,1.782.5,2.5-.948.483-1.948.649-3,.5.968-2.526.134-3.192-2.5-2-.617-.949-.451-1.782.5-2.5-1.916-3.161-3.75-2.994-5.5.5-1.113-1.26-1.28-2.427-.5-3.5-1.124-.249-2.124-.749-3-1.5.667-.333,1.333-.667,2-1-1.759-1.254-3.259-.921-4.5,1-.956-1.079-1.789-2.245-2.5-3.5-5.969-1.71-11.969-3.544-18-5.5-2.861,2.645-6.194,3.478-10,2.5,2.486-.705,2.486-1.538,0-2.5-.65-1.935-.983-3.935-1-6-2.027-.162-4.027.005-6,.5.958,1.147.625,2.147-1,3,.949.617,1.782.451,2.5-.5.464.594.631,1.261.5,2-1.644-.214-3.144.12-4.5,1-.417-1.256-1.25-1.923-2.5-2-.763-.768-1.763-1.268-3-1.5,2.452-.29,4.785-.956,7-2-1.877-.576-3.711-.409-5.5.5-1.507-1.055-3.007-2.055-4.5-3,1.787-1.317,3.454-.984,5,1,.886-.825,1.219-1.825,1-3,3.096-.593,5.429.407,7,3,1.048-.883,2.215-1.55,3.5-2,1.63,1.213,3.464,2.046,5.5,2.5-5.036,1.85-5.036,4.017,0,6.5,1.546-1.184,3.213-2.184,5-3-1.326.295-2.659-.205-4-1.5,2.153-.099,3.819-.933,5-2.5Z" style="fill:#a27637" />
<path d="m264.5,213.5c1.453,1.433,2.287,3.1,2.5,5-1.194-.93-2.527-1.597-4-2-1.762.444-1.595.944.5,1.5-1.333.667-2.667,1.333-4,2,2.126.898,4.126,2.065,6,3.5.777,2.281,1.777,4.448,3,6.5-1.642,3.755.025,5.922,5,6.5-.477.978-1.143,1.811-2,2.5,2.307.337,4.14-.496,5.5-2.5l1.5,3c-.747.236-1.58.57-2.5,1-.402,1.372-.902,2.705-1.5,4,1.835-.241,3.501.259,5,1.5-.667-1-1.333-2-2-3,2.73-3.459,3.396-3.126,2,1,1.73,1.852,2.896,1.686,3.5-.5.195,1.707.195,3.374,0,5,1.574-1.484,2.907-3.151,4-5,.492,1.049.326,2.049-.5,3,.333.333.667.667,1,1,2.595-2.567,4.928-2.234,7,1-1.291,1.027-1.291,2.027,0,3-2.252-.833-4.419-.833-6.5,0-.333-.667-.667-1.333-1-2-.278.916-.778,1.582-1.5,2-5.062-.928-9.728-2.594-14-5-.453-.958-1.119-1.792-2-2.5-4.279-1.473-8.279-3.473-12-6-3.905-1.359-7.905-2.192-12-2.5-12.778-5.432-25.778-10.599-39-15.5-2.763-2.374-5.763-4.208-9-5.5,1.478.262,2.811-.071,4-1-.774-1.211-1.607-1.211-2.5,0-.163-2.176-.996-4.009-2.5-5.5.457-.414.791-.914,1-1.5-2.085-2.075-3.919-2.075-5.5,0-1.901-5.15-.401-6.15,4.5-3,.586-.209,1.086-.543,1.5-1,3.098.802,6.265,1.469,9.5,2,1.622-2.354,3.122-2.354,4.5,0,1.667-1.333,3.333-1.333,5,0,1-1.333,2-2.667,3-4l1.5,1.5c-2.667.667-2.667,1.333,0,2-1.544.29-2.877.956-4,2,1.851.837,3.684,1.671,5.5,2.5.115,1.607-.385,3.107-1.5,4.5.145.772.478,1.439,1,2,3.451.747,3.784.08,1-2,1.215-2.096,2.049-1.929,2.5.5.739-1.721,1.573-3.387,2.5-5-.293,1.547.207,3.214,1.5,5,1.193-1.478,1.693-2.812,1.5-4,2.29,1.242,4.123,2.908,5.5,5,1.722-.462,3.555-.628,5.5-.5-.667-.333-1.333-.667-2-1,2.019-.45,3.852-1.283,5.5-2.5l1,1c.826-1.905,1.993-2.239,3.5-1-1.211,1.22-1.211,2.387,0,3.5,1.635.54,2.968.04,4-1.5,1.09.891,1.09,1.891,0,3,.346,1.196.846,1.196,1.5,0,.333,1.333.667,2.667,1,4,1.011-.837,2.178-1.17,3.5-1-.131-2.867,1.203-4.533,4-5Z" style="fill:#a27637" />
<path d="m337,228.5c-.333.667-.667,1.333-1,2-.85-.924-1.85-.924-3,0-1.221-.772-2.221-1.772-3-3-1.459,1.932-2.625,3.932-3.5,6-.549-2.187-1.715-2.854-3.5-2-.985-1.314-2.152-2.314-3.5-3-.992.172-1.658-.162-2-1-.42-1.594-1.086-3.094-2-4.5.145-.772.478-1.439,1-2-3.258-.003-5.925-1.17-8-3.5,1.354-.706,3.021-.706,5,0,1.196-.346,1.196-.846,0-1.5-1.87-1.366-3.87-2.533-6-3.5-1.303,1.218-2.303.885-3-1-1.542,1.247-3.042,1.247-4.5,0-.333.667-.667,1.333-1,2-1.491-1.504-3.324-2.337-5.5-2.5-1.333-.667-1.333-1.333,0-2-1-.667-2-.667-3,0,.951.718,1.117,1.551.5,2.5-.923-1.259-1.757-2.592-2.5-4-2.737-.569-4.237-2.236-4.5-5-.689.857-1.522,1.523-2.5,2-.925-1.141-1.759-1.141-2.5,0-.928-1.835-2.094-2.168-3.5-1-1.672-2.606-2.006-5.273-1-8,.968-2.526.134-3.192-2.5-2-.617-.949-.451-1.782.5-2.5-1.916-3.161-3.75-2.994-5.5.5-1.113-1.26-1.28-2.427-.5-3.5-1.124-.249-2.124-.749-3-1.5.667-.333,1.333-.667,2-1-1.759-1.254-3.259-.921-4.5,1-.956-1.079-1.789-2.245-2.5-3.5-5.969-1.71-11.969-3.544-18-5.5-2.861,2.645-6.194,3.478-10,2.5,2.486-.705,2.486-1.538,0-2.5-2.062-.372-3.729-.705-5-1-1.644-.214-3.144.12-4.5,1-.417-1.256-1.25-1.923-2.5-2-1.699.16-3.366-.006-5-.5l1-1c-2.667-2.635-5.334-3.135-8-1.5-.333.667-.667,1.333-1,2-7.103,1.605-14.437,2.272-22,2,1.561.748,2.895,1.914,4,3.5-1.863,1.418-2.363,3.251-1.5,5.5,1.193-1.478,1.693-2.812,1.5-4,1.299.59,2.132,1.59,2.5,3,.17-2.215.837-4.215,2-6,.388.928,1.055,1.595,2,2-.027-1.288.973-2.288,3-3,.667,1.333,1.333,1.333,2,0,1.779,1.517,1.279,2.351-1.5,2.5,2.333.333,4.667.667,7,1-.667.333-1.333.667-2,1,1.449,1.117,3.116,1.784,5,2-1.894,1.079-2.227,2.413-1,4-1.284.684-2.451.517-3.5-.5-.626,2.491-1.459,2.491-2.5,0-1.114,1.223-1.281,2.556-.5,4h5c1.397,2.568,2.564,2.401,3.5-.5-.145-.772-.478-1.439-1-2,2.307-.337,4.14.496,5.5,2.5,1.487-.753,1.654-1.586.5-2.5,2.254-1.775,3.921-1.108,5,2-.405.945-1.072,1.612-2,2,1,.333,2,.667,3,1-1.104,1.131-.771,1.965,1,2.5,1.247-1.506,1.247-3.006,0-4.5,2.732-.398,4.565-1.898,5.5-4.5.667,1.333,1.333,1.333,2,0,.163,1.887-.671,3.387-2.5,4.5,1,.333,2,.667,3,1,1.333.667,1.333,1.333,0,2,1,.667,2,.667,3,0l-1-1c2.227-.121,4.06-.954,5.5-2.5,1.362,1.936,3.195,3.269,5.5,4,1.168,1.406.835,2.572-1,3.5,1.146.645,2.146,1.478,3,2.5.563-2.209,1.896-3.709,4-4.5-.088-1.578-.088-3.078,0-4.5.787.742,1.453,1.575,2,2.5-1.211,1.113-1.211,2.28,0,3.5-1.03.054-2.197.388-3.5,1-.495,1.973-.662,3.973-.5,6,4.798.399,8.798,2.399,12,6,2.693-.645,5.193-.645,7.5,0,2.168,1.322,2.001,1.989-.5,2,1.453,1.433,2.287,3.1,2.5,5-1.194-.93-2.527-1.597-4-2-1.762.444-1.595.944.5,1.5-1.333.667-2.667,1.333-4,2,2.126.898,4.126,2.065,6,3.5.777,2.281,1.777,4.448,3,6.5-1.642,3.755.025,5.922,5,6.5-.477.978-1.143,1.811-2,2.5,2.307.337,4.14-.496,5.5-2.5l1.5,3c-.747.236-1.58.57-2.5,1-.402,1.372-.902,2.705-1.5,4,1.835-.241,3.501.259,5,1.5-.667-1-1.333-2-2-3,2.73-3.459,3.396-3.126,2,1,1.73,1.852,2.896,1.686,3.5-.5.195,1.707.195,3.374,0,5,1.574-1.484,2.907-3.151,4-5,.492,1.049.326,2.049-.5,3l1,1c2.595-2.567,4.928-2.234,7,1-1.291,1.027-1.291,2.027,0,3,.739.131,1.406-.036,2-.5-1.054-1.388-1.22-2.888-.5-4.5.637,1.803,1.803,3.136,3.5,4,3.594-.926,7.26-1.259,11-1,1.291.973,1.291,1.973,0,3,1.545.952,3.212,1.285,5,1,1.052-.149,2.052.017,3,.5-3.726,1.043-3.393,1.543,1,1.5,1.291.237,2.291-.096,3-1,.203-1.544.87-2.878,2-4-.876-.751-1.876-1.251-3-1.5,1.654-.608,3.321-1.108,5-1.5,1.644-.816,2.81-2.15,3.5-4l1,1c.483-.948.649-1.948.5-3,4.445-.001,5.778-2.001,4-6,1.606-2.09,2.106-4.424,1.5-7Z" style="fill:#f0d7a9" />
<path d="m325.134,249.693c.178-.07.39.032.541-.07.218-.075.37-.502.038-.272-.038.228-.188-.11-.157-.216-.133-.071-.257.008-.316-.151-.05.032-.153.437.04.366.242.324-.075.264-.146.343Zm5.914-13.738c-.186,1.25,1.432,1.848.001,2.939.863.826,1.938,2.685-.113,2.733-1.231.617.966,1.297,1.015,2.165-.929.171-.678,1.479-.138,2.119,2.01.622,2.888.059,1.25,2.273-.954.18-1.215,1.112-2.226,1.555-.699.682.171.456-.367,1.028-.659-.053-1.369.296-1.7.627.324-.366-.429-.205-.628-.449-.03.267.164.353-.361.243-.013-.832-1.568-.2-1.456-1.011-1.136-.645-1.285-.302-2.42-.281-4.83-2.911-4.553,3.496-5.763,4.109-2.185,1.539-3.691-1.114-5.555-1.143-1.592-1.283-2.823,1.088-4.952-.56-1.044.459-2.788-1.675-3.395-.943-.357-.846.282-1.19-1.128-1.211,2.196-4.214,1.432-5.649,1.896-10.027.537-1.092,1.848,2.706,1.752,1.964-.859-2.867-2.29-2.817-1.607-4.271.683-.421-.976-.657-.108-1.196.103-.23-1.721-.718-2.177-1.077-.612-1.197-1.8-3.43-.676-3.766-3.357.706.11-.813-2.947-1.116,1.336.019.502-.584-.091-.168-.05-.634-.084-.093-.043.154-.244-.084-.123-.162-.298-.333.156.242.011.319-.215.254-.049.775-.072.161-.291-.374.003-.179.357-.258.208-.299-.092-.043-.955.678-.508-.297-.388.824-1.219-.32-1.591,0-.733-.593-.526-.192-1.14-.465.086-.794-.082.255-.139.342-.776.495-.52-.668-1.241-1.006-1.756-.05,2.051-.338.367-.931-.499.188-.712-.114-.356-.517-.39.5,1.434.158.93.179-.353-.099.02-.38-.404-.147-.147.02-.274.054-.199-.048-.164-.124.761-.533.384-.348-.502.066-1.515.856-1.545.007.68-1.703,2.459-1.046,3.724-1.269.445.375.147-.414.421-.624.361.19,1.251-.182,1.402-.163,1.891,3.014,1.472.295,2.832,1.193.214.324.08-.145.519-.141.69-.608.576.401,1.615.004,1.323.109-.007-.26-.086-.91,1.069-.775-2.593-5.177-.028-3.72,1.585-.955.903.834,1.508,1.295.688-.425,3.272.968,4.231-.173,2.396-.442-.518-.079.163-.332-1.249-1.978,3.977-1.509,4.386-3.368.249-.095.585.234.413-.032-.67-.455.003-1.152-.213-1.872-.12-2.332,3.46-2.551,3.879-.668.919.431,1.526-.443,1.88,1.217.914-.386,1.048.87,1.305.768.378-.052,1.095-.174,1.278.27.562.146-.512,2.123,1.452,1.403,1.331-1.613.698-.184.999.819,1.494.04,1.685,1.794,2.984,1.08.674.877,1.931-.182,2.569.782.128.182.779,1.679.936.778,8.101,1.373,1.44,1.625,2.388,7.514-.614.795-.931.729-1.829.346-.457.542-.593.557.108.724-.414.807-1.746,1.41-1.953,2.088.084.893-1.893,1.452-1.066,2.355.261.462-.885.74-.443,1.055,1.05.131,1.144-2.479,2.599-1.127Z" style="fill:#c64700;" />
</svg>