<svg xmlns="http://www.w3.org/2000/svg" version="1.1" width="350px" height="350px" style="shape-rendering:geometricPrecision; text-rendering:geometricPrecision; image-rendering:optimizeQuality; fill-rule:evenodd; clip-rule:evenodd" xmlns:xlink="http://www.w3.org/1999/xlink">
<g><path style="opacity:1" fill="#e2ffe0" d="M -0.5,-0.5 C 116.167,-0.5 232.833,-0.5 349.5,-0.5C 349.5,116.167 349.5,232.833 349.5,349.5C 232.833,349.5 116.167,349.5 -0.5,349.5C -0.5,232.833 -0.5,116.167 -0.5,-0.5 Z"/></g>
<g><path style="opacity:1" fill="#7dcea0 " d="M 50.5,88.5 C 48.1432,88.3367 45.8098,88.5034 43.5,89C 49.0526,89.8308 53.5526,92.3308 57,96.5C 57.6259,94.0087 58.4593,94.0087 59.5,96.5C 60.7362,97.2458 62.0695,97.5792 63.5,97.5C 63.5,98.5 63.5,99.5 63.5,100.5C 63.1667,100.5 62.8333,100.5 62.5,100.5C 59.5289,99.1154 56.6956,97.4488 54,95.5C 53.586,95.9574 53.086,96.2907 52.5,96.5C 44.9551,94.6363 37.2885,93.4696 29.5,93C 31.0368,91.8904 31.7035,90.3904 31.5,88.5C 30.1667,88.5 28.8333,88.5 27.5,88.5C 31.034,86.9524 34.8673,86.2857 39,86.5C 43.1327,86.2857 46.966,86.9524 50.5,88.5 Z"/></g>
<g><path style="opacity:1" fill="#f09c46  " d="M 50.5,88.5 C 54.247,88.3924 57.9137,88.8924 61.5,90C 67.7491,92.875 73.7491,96.0416 79.5,99.5C 77.1497,100.11 77.483,100.444 80.5,100.5C 80.3287,103.797 80.9954,104.131 82.5,101.5C 83.7003,102.531 85.0337,103.365 86.5,104C 85.5842,104.278 84.9175,104.778 84.5,105.5C 82.5992,105.567 80.7659,105.233 79,104.5C 76.99,106.243 75.1566,105.576 73.5,102.5C 70.8366,101.808 68.3366,100.808 66,99.5C 65.0979,99.7432 64.2646,100.077 63.5,100.5C 63.5,99.5 63.5,98.5 63.5,97.5C 62.0695,97.5792 60.7362,97.2458 59.5,96.5C 58.4593,94.0087 57.6259,94.0087 57,96.5C 53.5526,92.3308 49.0526,89.8308 43.5,89C 45.8098,88.5034 48.1432,88.3367 50.5,88.5 Z"/></g>
<g><path style="opacity:1" fill="#e37c19" d="M 62.5,100.5 C 62.8333,100.5 63.1667,100.5 63.5,100.5C 64.2646,100.077 65.0979,99.7432 66,99.5C 68.3366,100.808 70.8366,101.808 73.5,102.5C 75.1566,105.576 76.99,106.243 79,104.5C 80.7659,105.233 82.5992,105.567 84.5,105.5C 85.8333,105.5 87.1667,105.5 88.5,105.5C 88.6567,106.873 88.49,108.207 88,109.5C 86.4931,108.465 84.9931,108.632 83.5,110C 82.2412,110.923 80.9079,111.757 79.5,112.5C 80.2739,113.711 81.1072,113.711 82,112.5C 82.7253,114.158 83.892,114.658 85.5,114C 85.0426,113.586 84.7093,113.086 84.5,112.5C 87.3074,111.012 90.1407,109.679 93,108.5C 95.7242,108.803 98.2242,109.636 100.5,111C 99.1667,111.333 97.8333,111.667 96.5,112C 100.296,112.924 103.962,113.258 107.5,113C 109.439,113.908 110.439,115.408 110.5,117.5C 109.883,117.611 109.383,117.944 109,118.5C 105.357,117.773 102.524,116.773 100.5,115.5C 98.326,116.044 96.326,116.044 94.5,115.5C 93.1667,116.167 91.8333,116.833 90.5,117.5C 89.3175,115.355 87.8175,115.355 86,117.5C 82.3177,117.281 78.4844,117.281 74.5,117.5C 72.8974,118.677 71.564,118.511 70.5,117C 71.1667,116.667 71.8333,116.333 72.5,116C 71.2298,115.1 70.2298,113.934 69.5,112.5C 69.8454,114.382 69.3454,116.382 68,118.5C 66.6796,118.201 65.1796,118.034 63.5,118C 62.0118,116.283 60.1785,115.116 58,114.5C 57.6458,116.807 56.6458,117.141 55,115.5C 54.0546,115.905 53.3879,116.572 53,117.5C 52.9152,115.915 52.7486,114.582 52.5,113.5C 51.8333,114.167 51.1667,114.833 50.5,115.5C 48.6508,114.407 46.9842,113.074 45.5,111.5C 45.1667,112.167 44.8333,112.833 44.5,113.5C 42.6887,112.173 40.6887,111.173 38.5,110.5C 39.1667,109.833 39.8333,109.167 40.5,108.5C 40.0623,107.494 39.3957,107.494 38.5,108.5C 38.0024,107.397 37.6691,106.397 37.5,105.5C 35.5188,106.105 35.1854,107.105 36.5,108.5C 35.624,109.251 34.624,109.751 33.5,110C 37.3163,111.249 37.1497,112.415 33,113.5C 31.3745,112.711 29.8745,111.711 28.5,110.5C 29.09,109.201 30.09,108.368 31.5,108C 30.3279,107.581 29.3279,106.915 28.5,106C 30.9158,104.839 32.9158,103.172 34.5,101C 34.1667,100.667 33.8333,100.333 33.5,100C 37.3987,98.6285 41.3987,97.4618 45.5,96.5C 46.1924,97.0253 46.6924,97.6919 47,98.5C 50.2617,97.159 50.7617,97.4924 48.5,99.5C 50.3348,100.428 50.6682,101.594 49.5,103C 51.4211,103.36 53.0878,104.194 54.5,105.5C 57.1947,103.822 59.8614,102.156 62.5,100.5 Z"/></g>
<g><path style="opacity:1" fill="#f09c46  " d="M 27.5,88.5 C 28.8333,88.5 30.1667,88.5 31.5,88.5C 31.7035,90.3904 31.0368,91.8904 29.5,93C 37.2885,93.4696 44.9551,94.6363 52.5,96.5C 53.086,96.2907 53.586,95.9574 54,95.5C 56.6956,97.4488 59.5289,99.1154 62.5,100.5C 59.8614,102.156 57.1947,103.822 54.5,105.5C 53.0878,104.194 51.4211,103.36 49.5,103C 50.6682,101.594 50.3348,100.428 48.5,99.5C 50.7617,97.4924 50.2617,97.159 47,98.5C 46.6924,97.6919 46.1924,97.0253 45.5,96.5C 41.3987,97.4618 37.3987,98.6285 33.5,100C 33.8333,100.333 34.1667,100.667 34.5,101C 32.9158,103.172 30.9158,104.839 28.5,106C 29.3279,106.915 30.3279,107.581 31.5,108C 30.09,108.368 29.09,109.201 28.5,110.5C 29.8745,111.711 31.3745,112.711 33,113.5C 37.1497,112.415 37.3163,111.249 33.5,110C 34.624,109.751 35.624,109.251 36.5,108.5C 35.1854,107.105 35.5188,106.105 37.5,105.5C 37.6691,106.397 38.0024,107.397 38.5,108.5C 39.3957,107.494 40.0623,107.494 40.5,108.5C 39.8333,109.167 39.1667,109.833 38.5,110.5C 40.6887,111.173 42.6887,112.173 44.5,113.5C 44.8333,112.833 45.1667,112.167 45.5,111.5C 46.9842,113.074 48.6508,114.407 50.5,115.5C 51.1667,114.833 51.8333,114.167 52.5,113.5C 52.7486,114.582 52.9152,115.915 53,117.5C 53.3879,116.572 54.0546,115.905 55,115.5C 56.6458,117.141 57.6458,116.807 58,114.5C 60.1785,115.116 62.0118,116.283 63.5,118C 65.1796,118.034 66.6796,118.201 68,118.5C 69.3454,116.382 69.8454,114.382 69.5,112.5C 70.2298,113.934 71.2298,115.1 72.5,116C 71.8333,116.333 71.1667,116.667 70.5,117C 71.564,118.511 72.8974,118.677 74.5,117.5C 74.2178,118.778 73.5511,119.778 72.5,120.5C 68.5356,120.571 64.5356,120.237 60.5,119.5C 58.2275,122.398 56.7275,122.064 56,118.5C 54.2942,119.308 53.4609,120.641 53.5,122.5C 50.074,122.65 49.7406,121.484 52.5,119C 49.3665,117.43 46.0332,117.097 42.5,118C 43.3567,118.689 44.0233,119.522 44.5,120.5C 42.9223,121.298 41.2556,121.798 39.5,122C 42.8516,122.004 45.185,123.504 46.5,126.5C 44.2881,129.242 42.9548,128.742 42.5,125C 40.5,124.333 38.5,124.333 36.5,125C 37.6956,125.654 37.6956,126.154 36.5,126.5C 35.2807,125.737 34.2807,124.737 33.5,123.5C 31.6061,124.601 30.9394,125.934 31.5,127.5C 29.6675,126.752 28.0009,125.752 26.5,124.5C 25.9426,126.718 25.9426,129.051 26.5,131.5C 22.5259,128.763 18.5259,125.93 14.5,123C 13.552,122.517 12.552,122.351 11.5,122.5C 9.15555,121.653 7.65555,119.986 7,117.5C 4.24354,109.368 5.57688,102.034 11,95.5C 13.5888,93.7888 16.0888,91.9555 18.5,90C 21.3926,88.8512 24.3926,88.3512 27.5,88.5 Z"/></g>
<g><path style="opacity:1" fill="#7dcea0 " d="M 110.5,117.5 C 112.788,117.941 115.121,119.274 117.5,121.5C 121.511,122.227 125.511,122.893 129.5,123.5C 130.086,123.291 130.586,122.957 131,122.5C 131.36,124.421 132.194,126.088 133.5,127.5C 130.241,128.749 127.241,128.249 124.5,126C 122.19,125.503 119.857,125.337 117.5,125.5C 112.043,124.553 106.543,123.22 101,121.5C 99.8333,121.667 98.6667,121.833 97.5,122C 99.1667,122.333 100.833,122.667 102.5,123C 98.4668,123.35 94.6334,123.517 91,123.5C 84.854,122.931 78.6874,121.931 72.5,120.5C 73.5511,119.778 74.2178,118.778 74.5,117.5C 78.4844,117.281 82.3177,117.281 86,117.5C 87.8175,115.355 89.3175,115.355 90.5,117.5C 91.8333,116.833 93.1667,116.167 94.5,115.5C 96.326,116.044 98.326,116.044 100.5,115.5C 102.524,116.773 105.357,117.773 109,118.5C 109.383,117.944 109.883,117.611 110.5,117.5 Z"/></g>
<g><path style="opacity:1" fill="#f7ca93" d="M 11.5,122.5 C 12.552,122.351 13.552,122.517 14.5,123C 18.5259,125.93 22.5259,128.763 26.5,131.5C 27.8717,132.512 29.205,133.512 30.5,134.5C 29.1266,134.657 27.7932,134.49 26.5,134C 22.7594,131.268 18.7594,128.934 14.5,127C 12.5614,126.092 11.5614,124.592 11.5,122.5 Z"/></g>
<g><path style="opacity:1" fill="#7dcea0 " d="M 171.5,145.5 C 170.462,147.108 171.129,148.108 173.5,148.5C 174.833,149.5 174.833,150.5 173.5,151.5C 170.827,150.499 168.493,148.999 166.5,147C 160.912,146.448 155.245,145.281 149.5,143.5C 148.036,138.636 146.369,138.469 144.5,143C 141.097,143.738 137.93,143.238 135,141.5C 133.001,142.854 131.168,142.687 129.5,141C 124.255,140.212 119.255,139.712 114.5,139.5C 116.218,138.776 118.052,138.109 120,137.5C 120.333,137.833 120.667,138.167 121,138.5C 125.964,137.49 130.797,136.823 135.5,136.5C 136.696,136.846 136.696,137.346 135.5,138C 137.137,138.601 138.803,139.101 140.5,139.5C 144.906,138.569 149.073,138.569 153,139.5C 155.943,142.205 158.943,144.205 162,145.5C 165.047,145.071 168.214,145.071 171.5,145.5 Z"/></g>
<g><path style="opacity:1" fill="#e37c19" d="M 79.5,99.5 C 84.7626,99.1312 89.0959,100.964 92.5,105C 97.8522,106.009 102.852,108.009 107.5,111C 118.374,115.182 129.374,119.182 140.5,123C 142.833,124.667 145.167,126.333 147.5,128C 158.659,132.193 169.659,136.527 180.5,141C 181.381,141.708 182.047,142.542 182.5,143.5C 179.529,144.067 176.695,145.067 174,146.5C 173.329,145.748 172.496,145.414 171.5,145.5C 168.214,145.071 165.047,145.071 162,145.5C 158.943,144.205 155.943,142.205 153,139.5C 149.073,138.569 144.906,138.569 140.5,139.5C 138.803,139.101 137.137,138.601 135.5,138C 136.696,137.346 136.696,136.846 135.5,136.5C 130.797,136.823 125.964,137.49 121,138.5C 120.667,138.167 120.333,137.833 120,137.5C 118.052,138.109 116.218,138.776 114.5,139.5C 109.553,139.1 104.553,139.6 99.5,141C 104.71,142.907 105.71,146.074 102.5,150.5C 102.649,152.32 103.316,153.82 104.5,155C 104.167,155.333 103.833,155.667 103.5,156C 104.635,156.749 105.635,156.583 106.5,155.5C 106.838,151.838 108.005,151.171 110,153.5C 111.5,152.333 113,151.167 114.5,150C 113.87,148.108 112.87,146.441 111.5,145C 111.833,144.833 112.167,144.667 112.5,144.5C 114.149,146.65 115.982,148.65 118,150.5C 118.324,148.431 119.158,148.098 120.5,149.5C 121.251,148.624 121.751,147.624 122,146.5C 123.538,148.329 123.038,149.829 120.5,151C 120.833,151.333 121.167,151.667 121.5,152C 120.529,153.204 119.529,153.704 118.5,153.5C 119.651,154.731 120.817,154.731 122,153.5C 122.333,154.5 122.667,155.5 123,156.5C 123.36,154.392 124.027,152.392 125,150.5C 125.915,151.328 126.581,152.328 127,153.5C 128.943,152.193 130.777,152.193 132.5,153.5C 134.409,156.262 135.409,159.095 135.5,162C 133.248,161.95 131.582,160.784 130.5,158.5C 129.575,159.641 128.741,159.641 128,158.5C 127.667,160.167 127.333,161.833 127,163.5C 126.333,160.833 125.667,160.833 125,163.5C 121.89,162.327 121.723,162.827 124.5,165C 124.167,165.333 123.833,165.667 123.5,166C 121.667,165.529 119.834,164.696 118,163.5C 117.833,163.833 117.667,164.167 117.5,164.5C 118.145,165.732 118.311,167.065 118,168.5C 118.893,167.289 119.726,167.289 120.5,168.5C 119.271,169.281 117.938,169.781 116.5,170C 118.171,171.844 120.171,172.51 122.5,172C 121.5,171.667 120.5,171.333 119.5,171C 120.77,170.1 121.77,168.934 122.5,167.5C 124.156,169.022 125.323,168.689 126,166.5C 126.333,167.5 126.667,168.5 127,169.5C 127.333,169.167 127.667,168.833 128,168.5C 129.6,169.866 131.433,170.866 133.5,171.5C 132.726,172.711 131.893,172.711 131,171.5C 130.072,173.335 128.906,173.668 127.5,172.5C 126.5,173.5 125.5,174.5 124.5,175.5C 125.309,177.071 125.643,178.738 125.5,180.5C 122.579,179.304 119.579,178.304 116.5,177.5C 88.4606,164.517 60.4606,151.017 32.5,137C 31.6195,136.292 30.9528,135.458 30.5,134.5C 29.205,133.512 27.8717,132.512 26.5,131.5C 25.9426,129.051 25.9426,126.718 26.5,124.5C 28.0009,125.752 29.6675,126.752 31.5,127.5C 30.9394,125.934 31.6061,124.601 33.5,123.5C 34.2807,124.737 35.2807,125.737 36.5,126.5C 37.6956,126.154 37.6956,125.654 36.5,125C 38.5,124.333 40.5,124.333 42.5,125C 42.9548,128.742 44.2881,129.242 46.5,126.5C 45.185,123.504 42.8516,122.004 39.5,122C 41.2556,121.798 42.9223,121.298 44.5,120.5C 44.0233,119.522 43.3567,118.689 42.5,118C 46.0332,117.097 49.3665,117.43 52.5,119C 49.7406,121.484 50.074,122.65 53.5,122.5C 53.4609,120.641 54.2942,119.308 56,118.5C 56.7275,122.064 58.2275,122.398 60.5,119.5C 60.4142,120.496 60.7476,121.329 61.5,122C 59.5904,122.408 58.5904,123.575 58.5,125.5C 61.3224,127.796 60.989,130.629 57.5,134C 58.8989,134.595 60.2322,134.428 61.5,133.5C 62.8323,135.663 64.6656,137.33 67,138.5C 67.6667,137.5 67.6667,136.5 67,135.5C 65.5905,134.213 64.0905,133.046 62.5,132C 66.3108,129.401 66.3108,127.068 62.5,125C 63.8333,124.333 63.8333,123.667 62.5,123C 63,122.833 63.5,122.667 64,122.5C 65.697,123.478 66.8636,124.644 67.5,126C 67.0426,126.414 66.7093,126.914 66.5,127.5C 67.154,129.115 67.654,130.782 68,132.5C 68.3076,131.692 68.8076,131.025 69.5,130.5C 71.845,132.514 73.845,134.847 75.5,137.5C 76.7202,138.711 77.8869,138.711 79,137.5C 80.2837,138.572 80.6171,139.905 80,141.5C 80.9147,140.672 81.5814,139.672 82,138.5C 85.3333,139.5 85.3333,140.5 82,141.5C 81.3333,142.5 81.3333,143.5 82,144.5C 82.9154,142.02 84.4154,141.353 86.5,142.5C 88.1913,140.744 90.1913,140.244 92.5,141C 92.5,143 92.5,145 92.5,147C 93.5,147.667 94.5,147.667 95.5,147C 96.0611,145.324 97.0611,143.991 98.5,143C 95.8333,142.333 95.8333,141.667 98.5,141C 97.1667,140.333 97.1667,139.667 98.5,139C 95.2228,139.201 91.8895,139.368 88.5,139.5C 87.8333,137.167 87.1667,134.833 86.5,132.5C 89.0495,132.561 90.5495,133.894 91,136.5C 92.0174,133.972 93.1841,133.972 94.5,136.5C 95.8425,135.098 96.6758,135.431 97,137.5C 97.9234,136.241 98.7568,134.908 99.5,133.5C 101.228,137.617 102.895,137.95 104.5,134.5C 104.833,135.167 105.167,135.833 105.5,136.5C 107.311,135.264 109.144,135.264 111,136.5C 111.5,136.333 112,136.167 112.5,136C 111.167,135.333 111.167,134.667 112.5,134C 111.328,133.581 110.328,132.915 109.5,132C 111.112,131.28 112.612,131.446 114,132.5C 114.442,130.321 115.442,129.655 117,130.5C 117.456,129.256 116.956,128.423 115.5,128C 116.381,127.292 117.047,126.458 117.5,125.5C 119.857,125.337 122.19,125.503 124.5,126C 127.241,128.249 130.241,128.749 133.5,127.5C 132.194,126.088 131.36,124.421 131,122.5C 130.586,122.957 130.086,123.291 129.5,123.5C 125.511,122.893 121.511,122.227 117.5,121.5C 115.121,119.274 112.788,117.941 110.5,117.5C 110.439,115.408 109.439,113.908 107.5,113C 103.962,113.258 100.296,112.924 96.5,112C 97.8333,111.667 99.1667,111.333 100.5,111C 98.2242,109.636 95.7242,108.803 93,108.5C 90.1407,109.679 87.3074,111.012 84.5,112.5C 84.7093,113.086 85.0426,113.586 85.5,114C 83.892,114.658 82.7253,114.158 82,112.5C 81.1072,113.711 80.2739,113.711 79.5,112.5C 80.9079,111.757 82.2412,110.923 83.5,110C 84.9931,108.632 86.4931,108.465 88,109.5C 88.49,108.207 88.6567,106.873 88.5,105.5C 87.1667,105.5 85.8333,105.5 84.5,105.5C 84.9175,104.778 85.5842,104.278 86.5,104C 85.0337,103.365 83.7003,102.531 82.5,101.5C 80.9954,104.131 80.3287,103.797 80.5,100.5C 77.483,100.444 77.1497,100.11 79.5,99.5 Z"/></g>
<g><path style="opacity:1" fill="#8116a0 " d="M 60.5,119.5 C 64.5356,120.237 68.5356,120.571 72.5,120.5C 78.6874,121.931 84.854,122.931 91,123.5C 94.6334,123.517 98.4668,123.35 102.5,123C 100.833,122.667 99.1667,122.333 97.5,122C 98.6667,121.833 99.8333,121.667 101,121.5C 106.543,123.22 112.043,124.553 117.5,125.5C 117.047,126.458 116.381,127.292 115.5,128C 116.956,128.423 117.456,129.256 117,130.5C 115.442,129.655 114.442,130.321 114,132.5C 112.612,131.446 111.112,131.28 109.5,132C 110.328,132.915 111.328,133.581 112.5,134C 111.167,134.667 111.167,135.333 112.5,136C 112,136.167 111.5,136.333 111,136.5C 109.144,135.264 107.311,135.264 105.5,136.5C 105.167,135.833 104.833,135.167 104.5,134.5C 102.895,137.95 101.228,137.617 99.5,133.5C 98.7568,134.908 97.9234,136.241 97,137.5C 96.6758,135.431 95.8425,135.098 94.5,136.5C 93.1841,133.972 92.0174,133.972 91,136.5C 90.5495,133.894 89.0495,132.561 86.5,132.5C 87.1667,134.833 87.8333,137.167 88.5,139.5C 91.8895,139.368 95.2228,139.201 98.5,139C 97.1667,139.667 97.1667,140.333 98.5,141C 95.8333,141.667 95.8333,142.333 98.5,143C 97.0611,143.991 96.0611,145.324 95.5,147C 94.5,147.667 93.5,147.667 92.5,147C 92.5,145 92.5,143 92.5,141C 90.1913,140.244 88.1913,140.744 86.5,142.5C 84.4154,141.353 82.9154,142.02 82,144.5C 81.3333,143.5 81.3333,142.5 82,141.5C 85.3333,140.5 85.3333,139.5 82,138.5C 81.5814,139.672 80.9147,140.672 80,141.5C 80.6171,139.905 80.2837,138.572 79,137.5C 77.8869,138.711 76.7202,138.711 75.5,137.5C 73.845,134.847 71.845,132.514 69.5,130.5C 68.8076,131.025 68.3076,131.692 68,132.5C 67.654,130.782 67.154,129.115 66.5,127.5C 66.7093,126.914 67.0426,126.414 67.5,126C 66.8636,124.644 65.697,123.478 64,122.5C 63.5,122.667 63,122.833 62.5,123C 63.8333,123.667 63.8333,124.333 62.5,125C 66.3108,127.068 66.3108,129.401 62.5,132C 64.0905,133.046 65.5905,134.213 67,135.5C 67.6667,136.5 67.6667,137.5 67,138.5C 64.6656,137.33 62.8323,135.663 61.5,133.5C 60.2322,134.428 58.8989,134.595 57.5,134C 60.989,130.629 61.3224,127.796 58.5,125.5C 58.5904,123.575 59.5904,122.408 61.5,122C 60.7476,121.329 60.4142,120.496 60.5,119.5 Z"/></g>
<g><path style="opacity:1" fill="#8116a0 " d="M 114.5,139.5 C 119.255,139.712 124.255,140.212 129.5,141C 131.168,142.687 133.001,142.854 135,141.5C 137.93,143.238 141.097,143.738 144.5,143C 146.369,138.469 148.036,138.636 149.5,143.5C 149.577,144.75 150.244,145.583 151.5,146C 151.167,147.667 150.833,149.333 150.5,151C 151.448,151.483 152.448,151.649 153.5,151.5C 153.461,149.641 154.294,148.308 156,147.5C 157.419,148.46 158.919,149.293 160.5,150C 159.304,150.654 159.304,151.154 160.5,151.5C 162.721,151.945 165.055,151.945 167.5,151.5C 169.064,152.769 170.731,153.936 172.5,155C 170.963,156.11 170.297,157.61 170.5,159.5C 173.588,158.932 176.588,158.932 179.5,159.5C 180.061,161.426 180.227,163.426 180,165.5C 181,164.167 182,162.833 183,161.5C 182.27,164.021 181.77,166.687 181.5,169.5C 179.992,169.686 178.325,170.352 176.5,171.5C 175.957,171.44 175.624,171.107 175.5,170.5C 176.624,169.086 177.624,167.586 178.5,166C 178.167,165.833 177.833,165.667 177.5,165.5C 175.183,166.82 173.183,168.486 171.5,170.5C 169.548,169.897 167.548,170.23 165.5,171.5C 164.268,170.855 162.935,170.689 161.5,171C 164.167,169.667 164.167,168.333 161.5,167C 163.888,166.135 165.388,166.968 166,169.5C 166.667,166.833 167.333,166.833 168,169.5C 168.925,168.953 169.758,168.287 170.5,167.5C 169.219,165.4 167.552,163.734 165.5,162.5C 164.522,162.977 163.689,163.643 163,164.5C 162.667,164.167 162.333,163.833 162,163.5C 160.59,165.884 158.59,167.55 156,168.5C 154.887,167.289 153.72,167.289 152.5,168.5C 151.808,167.975 151.308,167.308 151,166.5C 148.967,167.016 148.967,166.35 151,164.5C 152.635,165.849 154.135,165.682 155.5,164C 154.833,163.667 154.167,163.333 153.5,163C 154.974,161.684 156.641,160.684 158.5,160C 156.285,159.83 154.285,159.163 152.5,158C 153.759,157.077 155.092,156.243 156.5,155.5C 155.24,154.618 154.074,153.618 153,152.5C 152.383,153.449 152.549,154.282 153.5,155C 151.927,158.108 150.427,161.274 149,164.5C 148,164.833 147,165.167 146,165.5C 146.497,163.802 146.33,162.135 145.5,160.5C 150.364,160.043 151.197,158.376 148,155.5C 147.577,156.956 146.744,157.456 145.5,157C 146.665,155.132 146.332,153.298 144.5,151.5C 143.614,152.325 143.281,153.325 143.5,154.5C 142.167,154.5 140.833,154.5 139.5,154.5C 139.477,156.927 138.977,159.26 138,161.5C 136.132,158.061 136.632,154.894 139.5,152C 137.003,150.017 135.836,150.85 136,154.5C 134.989,153.663 133.822,153.33 132.5,153.5C 130.777,152.193 128.943,152.193 127,153.5C 126.581,152.328 125.915,151.328 125,150.5C 124.027,152.392 123.36,154.392 123,156.5C 122.667,155.5 122.333,154.5 122,153.5C 120.817,154.731 119.651,154.731 118.5,153.5C 119.529,153.704 120.529,153.204 121.5,152C 121.167,151.667 120.833,151.333 120.5,151C 123.038,149.829 123.538,148.329 122,146.5C 121.751,147.624 121.251,148.624 120.5,149.5C 119.158,148.098 118.324,148.431 118,150.5C 115.982,148.65 114.149,146.65 112.5,144.5C 112.167,144.667 111.833,144.833 111.5,145C 112.87,146.441 113.87,148.108 114.5,150C 113,151.167 111.5,152.333 110,153.5C 108.005,151.171 106.838,151.838 106.5,155.5C 105.635,156.583 104.635,156.749 103.5,156C 103.833,155.667 104.167,155.333 104.5,155C 103.316,153.82 102.649,152.32 102.5,150.5C 105.71,146.074 104.71,142.907 99.5,141C 104.553,139.6 109.553,139.1 114.5,139.5 Z"/></g>
<g><path style="opacity:1" fill="#e37c19" d="M 149.5,143.5 C 155.245,145.281 160.912,146.448 166.5,147C 168.493,148.999 170.827,150.499 173.5,151.5C 174.833,150.5 174.833,149.5 173.5,148.5C 171.129,148.108 170.462,147.108 171.5,145.5C 172.496,145.414 173.329,145.748 174,146.5C 176.695,145.067 179.529,144.067 182.5,143.5C 188.48,144.657 193.813,147.157 198.5,151C 221.518,159.344 244.184,168.51 266.5,178.5C 266.53,179.497 266.03,180.164 265,180.5C 259.662,177.387 253.995,175.053 248,173.5C 247.667,173.833 247.333,174.167 247,174.5C 245.056,172.779 242.89,171.446 240.5,170.5C 235.041,169.338 229.374,167.672 223.5,165.5C 219.97,166.357 216.637,166.357 213.5,165.5C 212.808,166.025 212.308,166.692 212,167.5C 210.796,166.529 210.296,165.529 210.5,164.5C 209.5,165.833 208.5,165.833 207.5,164.5C 206.417,165.365 206.251,166.365 207,167.5C 208.815,168.244 210.648,168.911 212.5,169.5C 210.44,170.811 208.274,170.811 206,169.5C 204.073,170.762 204.24,171.762 206.5,172.5C 206.167,173.167 205.833,173.833 205.5,174.5C 204.317,173.496 202.984,172.662 201.5,172C 202.833,171.333 202.833,170.667 201.5,170C 202.167,168.667 203.167,167.667 204.5,167C 202.776,166.552 202.109,165.718 202.5,164.5C 201.808,165.025 201.308,165.692 201,166.5C 198.853,165.524 196.686,165.691 194.5,167C 194.833,167.333 195.167,167.667 195.5,168C 194.736,170.069 194.236,172.236 194,174.5C 193.808,172.423 193.308,170.423 192.5,168.5C 191.252,169.04 190.085,169.707 189,170.5C 188.667,169.833 188.333,169.167 188,168.5C 185.929,171.416 184.595,171.082 184,167.5C 183.583,168.756 182.75,169.423 181.5,169.5C 181.77,166.687 182.27,164.021 183,161.5C 182,162.833 181,164.167 180,165.5C 180.227,163.426 180.061,161.426 179.5,159.5C 176.588,158.932 173.588,158.932 170.5,159.5C 170.297,157.61 170.963,156.11 172.5,155C 170.731,153.936 169.064,152.769 167.5,151.5C 165.055,151.945 162.721,151.945 160.5,151.5C 159.304,151.154 159.304,150.654 160.5,150C 158.919,149.293 157.419,148.46 156,147.5C 154.294,148.308 153.461,149.641 153.5,151.5C 152.448,151.649 151.448,151.483 150.5,151C 150.833,149.333 151.167,147.667 151.5,146C 150.244,145.583 149.577,144.75 149.5,143.5 Z"/></g>
<g><path style="opacity:1" fill="#7dcea0 " d="M 240.5,170.5 C 239.319,172.067 237.653,172.901 235.5,173C 236.841,174.295 238.174,174.795 239.5,174.5C 237.713,175.316 236.046,176.316 234.5,177.5C 229.464,175.017 229.464,172.85 234.5,171C 232.464,170.546 230.63,169.713 229,168.5C 227.715,168.95 226.548,169.617 225.5,170.5C 223.929,167.907 221.596,166.907 218.5,167.5C 218.719,168.675 218.386,169.675 217.5,170.5C 215.954,168.516 214.287,168.183 212.5,169.5C 210.648,168.911 208.815,168.244 207,167.5C 206.251,166.365 206.417,165.365 207.5,164.5C 208.5,165.833 209.5,165.833 210.5,164.5C 210.296,165.529 210.796,166.529 212,167.5C 212.308,166.692 212.808,166.025 213.5,165.5C 216.637,166.357 219.97,166.357 223.5,165.5C 229.374,167.672 235.041,169.338 240.5,170.5 Z"/></g>
<g><path style="opacity:1" fill="#7dcea0 " d="M 205.5,174.5 C 198.397,176.105 191.063,176.772 183.5,176.5C 179.647,175.834 175.647,175.167 171.5,174.5C 172.758,175.016 173.758,174.35 174.5,172.5C 175.675,173.855 176.675,173.688 177.5,172C 177.272,171.601 176.938,171.435 176.5,171.5C 178.325,170.352 179.992,169.686 181.5,169.5C 182.75,169.423 183.583,168.756 184,167.5C 184.595,171.082 185.929,171.416 188,168.5C 188.333,169.167 188.667,169.833 189,170.5C 190.085,169.707 191.252,169.04 192.5,168.5C 193.308,170.423 193.808,172.423 194,174.5C 194.236,172.236 194.736,170.069 195.5,168C 195.167,167.667 194.833,167.333 194.5,167C 196.686,165.691 198.853,165.524 201,166.5C 201.308,165.692 201.808,165.025 202.5,164.5C 202.109,165.718 202.776,166.552 204.5,167C 203.167,167.667 202.167,168.667 201.5,170C 202.833,170.667 202.833,171.333 201.5,172C 202.984,172.662 204.317,173.496 205.5,174.5 Z"/></g>
<g><path style="opacity:1" fill="#7dcea0 " d="M 212.5,169.5 C 213.993,170.445 215.493,171.445 217,172.5C 218.789,171.591 220.623,171.424 222.5,172C 220.285,173.044 217.952,173.71 215.5,174C 216.737,174.232 217.737,174.732 218.5,175.5C 216.801,175.66 215.134,175.494 213.5,175C 213.833,174.667 214.167,174.333 214.5,174C 211.833,171.365 209.166,170.865 206.5,172.5C 204.24,171.762 204.073,170.762 206,169.5C 208.274,170.811 210.44,170.811 212.5,169.5 Z"/></g>
<g><path style="opacity:1" fill="#e37c19" d="M 176.5,171.5 C 176.938,171.435 177.272,171.601 177.5,172C 176.675,173.688 175.675,173.855 174.5,172.5C 173.758,174.35 172.758,175.016 171.5,174.5C 175.647,175.167 179.647,175.834 183.5,176.5C 185.061,177.248 186.395,178.414 187.5,180C 185.637,181.418 185.137,183.251 186,185.5C 187.193,184.022 187.693,182.688 187.5,181.5C 188.799,182.09 189.632,183.09 190,184.5C 190.17,182.285 190.837,180.285 192,178.5C 192.388,179.428 193.055,180.095 194,180.5C 193.973,179.212 194.973,178.212 197,177.5C 197.667,178.833 198.333,178.833 199,177.5C 200.779,179.017 200.279,179.851 197.5,180C 199.833,180.333 202.167,180.667 204.5,181C 203.833,181.333 203.167,181.667 202.5,182C 203.949,183.117 205.616,183.784 207.5,184C 205.606,185.079 205.273,186.413 206.5,188C 205.216,188.684 204.049,188.517 203,187.5C 202.374,189.991 201.541,189.991 200.5,187.5C 199.386,188.723 199.219,190.056 200,191.5C 201.667,191.5 203.333,191.5 205,191.5C 206.397,194.068 207.564,193.901 208.5,191C 208.355,190.228 208.022,189.561 207.5,189C 209.807,188.663 211.64,189.496 213,191.5C 214.487,190.747 214.654,189.914 213.5,189C 215.754,187.225 217.421,187.892 218.5,191C 218.095,191.945 217.428,192.612 216.5,193C 217.5,193.333 218.5,193.667 219.5,194C 218.396,195.131 218.729,195.965 220.5,196.5C 221.747,194.994 221.747,193.494 220.5,192C 223.232,191.602 225.065,190.102 226,187.5C 226.667,188.833 227.333,188.833 228,187.5C 228.163,189.387 227.329,190.887 225.5,192C 226.5,192.333 227.5,192.667 228.5,193C 229.833,193.667 229.833,194.333 228.5,195C 229.5,195.667 230.5,195.667 231.5,195C 231.167,194.667 230.833,194.333 230.5,194C 232.727,193.879 234.56,193.046 236,191.5C 237.362,193.436 239.195,194.769 241.5,195.5C 242.668,196.906 242.335,198.072 240.5,199C 241.646,199.645 242.646,200.478 243.5,201.5C 244.063,199.291 245.396,197.791 247.5,197C 247.412,195.422 247.412,193.922 247.5,192.5C 248.287,193.242 248.953,194.075 249.5,195C 248.289,196.113 248.289,197.28 249.5,198.5C 248.47,198.554 247.303,198.888 246,199.5C 245.505,201.473 245.338,203.473 245.5,205.5C 250.298,205.899 254.298,207.899 257.5,211.5C 260.193,210.855 262.693,210.855 265,211.5C 267.168,212.822 267.001,213.489 264.5,213.5C 261.703,213.967 260.369,215.633 260.5,218.5C 259.178,218.33 258.011,218.663 257,219.5C 256.667,218.167 256.333,216.833 256,215.5C 255.346,216.696 254.846,216.696 254.5,215.5C 255.59,214.391 255.59,213.391 254.5,212.5C 253.468,214.04 252.135,214.54 250.5,214C 249.289,212.887 249.289,211.72 250.5,210.5C 248.993,209.261 247.826,209.595 247,211.5C 246.667,211.167 246.333,210.833 246,210.5C 244.352,211.717 242.519,212.55 240.5,213C 241.167,213.333 241.833,213.667 242.5,214C 240.555,213.872 238.722,214.038 237,214.5C 235.623,212.408 233.79,210.742 231.5,209.5C 231.693,210.688 231.193,212.022 230,213.5C 228.707,211.714 228.207,210.047 228.5,208.5C 227.573,210.113 226.739,211.779 226,213.5C 225.549,211.071 224.715,210.904 223.5,213C 226.284,215.08 225.951,215.747 222.5,215C 221.978,214.439 221.645,213.772 221.5,213C 222.615,211.607 223.115,210.107 223,208.5C 221.184,207.671 219.351,206.837 217.5,206C 218.623,204.956 219.956,204.29 221.5,204C 218.833,203.333 218.833,202.667 221.5,202C 221,201.5 220.5,201 220,200.5C 219,201.833 218,203.167 217,204.5C 215.333,203.167 213.667,203.167 212,204.5C 210.622,202.146 209.122,202.146 207.5,204.5C 204.265,203.969 201.098,203.302 198,202.5C 197.586,202.957 197.086,203.291 196.5,203.5C 191.599,200.35 190.099,201.35 192,206.5C 193.581,204.425 195.415,204.425 197.5,206.5C 197.291,207.086 196.957,207.586 196.5,208C 198.004,209.491 198.837,211.324 199,213.5C 199.893,212.289 200.726,212.289 201.5,213.5C 200.311,214.429 198.978,214.762 197.5,214.5C 185.16,209.831 173.16,204.331 161.5,198C 158.899,197.08 156.232,196.413 153.5,196C 149.327,193.019 144.994,190.519 140.5,188.5C 138.522,185.988 135.855,184.488 132.5,184C 131.965,181.891 130.965,181.391 129.5,182.5C 128.14,181.82 126.807,181.153 125.5,180.5C 125.643,178.738 125.309,177.071 124.5,175.5C 125.5,174.5 126.5,173.5 127.5,172.5C 128.906,173.668 130.072,173.335 131,171.5C 131.893,172.711 132.726,172.711 133.5,171.5C 131.433,170.866 129.6,169.866 128,168.5C 127.667,168.833 127.333,169.167 127,169.5C 126.667,168.5 126.333,167.5 126,166.5C 125.323,168.689 124.156,169.022 122.5,167.5C 121.77,168.934 120.77,170.1 119.5,171C 120.5,171.333 121.5,171.667 122.5,172C 120.171,172.51 118.171,171.844 116.5,170C 117.938,169.781 119.271,169.281 120.5,168.5C 119.726,167.289 118.893,167.289 118,168.5C 118.311,167.065 118.145,165.732 117.5,164.5C 117.667,164.167 117.833,163.833 118,163.5C 119.834,164.696 121.667,165.529 123.5,166C 123.833,165.667 124.167,165.333 124.5,165C 121.723,162.827 121.89,162.327 125,163.5C 125.667,160.833 126.333,160.833 127,163.5C 127.333,161.833 127.667,160.167 128,158.5C 128.741,159.641 129.575,159.641 130.5,158.5C 131.582,160.784 133.248,161.95 135.5,162C 135.409,159.095 134.409,156.262 132.5,153.5C 133.822,153.33 134.989,153.663 136,154.5C 135.836,150.85 137.003,150.017 139.5,152C 136.632,154.894 136.132,158.061 138,161.5C 138.977,159.26 139.477,156.927 139.5,154.5C 140.833,154.5 142.167,154.5 143.5,154.5C 143.281,153.325 143.614,152.325 144.5,151.5C 146.332,153.298 146.665,155.132 145.5,157C 146.744,157.456 147.577,156.956 148,155.5C 151.197,158.376 150.364,160.043 145.5,160.5C 146.33,162.135 146.497,163.802 146,165.5C 147,165.167 148,164.833 149,164.5C 150.427,161.274 151.927,158.108 153.5,155C 152.549,154.282 152.383,153.449 153,152.5C 154.074,153.618 155.24,154.618 156.5,155.5C 155.092,156.243 153.759,157.077 152.5,158C 154.285,159.163 156.285,159.83 158.5,160C 156.641,160.684 154.974,161.684 153.5,163C 154.167,163.333 154.833,163.667 155.5,164C 154.135,165.682 152.635,165.849 151,164.5C 148.967,166.35 148.967,167.016 151,166.5C 151.308,167.308 151.808,167.975 152.5,168.5C 153.72,167.289 154.887,167.289 156,168.5C 158.59,167.55 160.59,165.884 162,163.5C 162.333,163.833 162.667,164.167 163,164.5C 163.689,163.643 164.522,162.977 165.5,162.5C 167.552,163.734 169.219,165.4 170.5,167.5C 169.758,168.287 168.925,168.953 168,169.5C 167.333,166.833 166.667,166.833 166,169.5C 165.388,166.968 163.888,166.135 161.5,167C 164.167,168.333 164.167,169.667 161.5,171C 162.935,170.689 164.268,170.855 165.5,171.5C 167.548,170.23 169.548,169.897 171.5,170.5C 173.183,168.486 175.183,166.82 177.5,165.5C 177.833,165.667 178.167,165.833 178.5,166C 177.624,167.586 176.624,169.086 175.5,170.5C 175.624,171.107 175.957,171.44 176.5,171.5 Z"/></g>
<g><path style="opacity:1" fill="#f7ca93" d="M 116.5,177.5 C 119.579,178.304 122.579,179.304 125.5,180.5C 126.807,181.153 128.14,181.82 129.5,182.5C 130.965,181.391 131.965,181.891 132.5,184C 135.855,184.488 138.522,185.988 140.5,188.5C 131.933,185.88 123.933,182.214 116.5,177.5 Z"/></g>
<g><path style="opacity:1" fill="#f09c46  " d="M 240.5,170.5 C 242.89,171.446 245.056,172.779 247,174.5C 247.333,174.167 247.667,173.833 248,173.5C 253.995,175.053 259.662,177.387 265,180.5C 266.03,180.164 266.53,179.497 266.5,178.5C 277.378,183.145 288.378,187.645 299.5,192C 308.823,196.149 317.49,200.983 325.5,206.5C 325.056,208.113 324.056,209.28 322.5,210C 324.055,212.808 326.055,214.308 328.5,214.5C 327.975,215.192 327.308,215.692 326.5,216C 326.665,217.117 326.998,218.284 327.5,219.5C 327.043,220.298 326.376,220.631 325.5,220.5C 325.199,217.683 323.866,217.016 321.5,218.5C 320.417,217.635 320.251,216.635 321,215.5C 322.183,216.731 323.349,216.731 324.5,215.5C 323.478,214.646 322.645,213.646 322,212.5C 321,213.5 320,214.5 319,215.5C 318.383,214.551 318.549,213.718 319.5,213C 317.699,212.683 317.366,212.016 318.5,211C 317.552,210.517 316.552,210.351 315.5,210.5C 315.36,212.124 316.027,213.29 317.5,214C 316.056,214.781 314.723,214.614 313.5,213.5C 315.022,211.844 314.689,210.677 312.5,210C 313.833,209.333 315.167,208.667 316.5,208C 315.929,206.795 315.262,205.628 314.5,204.5C 314.331,205.397 313.998,206.397 313.5,207.5C 311.425,206.711 309.258,205.378 307,203.5C 306.167,203.667 305.333,203.833 304.5,204C 305.641,204.741 305.641,205.575 304.5,206.5C 303.409,207.888 302.076,208.388 300.5,208C 300.201,206.68 300.034,205.18 300,203.5C 298.455,204.821 297.289,204.488 296.5,202.5C 297.981,201.52 299.315,200.353 300.5,199C 300.167,198.667 299.833,198.333 299.5,198C 297.262,198.508 294.929,198.841 292.5,199C 293.167,199.667 293.833,200.333 294.5,201C 292.919,201.707 291.419,202.54 290,203.5C 289.517,202.552 289.351,201.552 289.5,200.5C 288.178,200.67 287.011,200.337 286,199.5C 285.223,201.701 284.056,201.701 282.5,199.5C 284.976,198.026 286.976,196.693 288.5,195.5C 287.624,194.749 286.624,194.249 285.5,194C 286.696,193.346 286.696,192.846 285.5,192.5C 284.334,194.387 283.668,196.053 283.5,197.5C 281.866,197.032 280.7,196.032 280,194.5C 279.667,194.833 279.333,195.167 279,195.5C 278.581,194.328 277.915,193.328 277,192.5C 276.383,193.449 276.549,194.282 277.5,195C 276.552,195.483 275.552,195.649 274.5,195.5C 275.468,192.974 274.634,192.308 272,193.5C 271.383,192.551 271.549,191.718 272.5,191C 270.584,187.839 268.75,188.006 267,191.5C 265.887,190.24 265.72,189.073 266.5,188C 265.376,187.751 264.376,187.251 263.5,186.5C 264.167,186.167 264.833,185.833 265.5,185.5C 263.741,184.246 262.241,184.579 261,186.5C 260.044,185.421 259.211,184.255 258.5,183C 252.531,181.29 246.531,179.456 240.5,177.5C 237.639,180.145 234.306,180.978 230.5,180C 232.986,179.295 232.986,178.462 230.5,177.5C 229.85,175.565 229.517,173.565 229.5,171.5C 227.473,171.338 225.473,171.505 223.5,172C 224.458,173.147 224.125,174.147 222.5,175C 223.449,175.617 224.282,175.451 225,174.5C 225.464,175.094 225.631,175.761 225.5,176.5C 223.856,176.286 222.356,176.62 221,177.5C 220.583,176.244 219.75,175.577 218.5,175.5C 217.737,174.732 216.737,174.232 215.5,174C 217.952,173.71 220.285,173.044 222.5,172C 220.623,171.424 218.789,171.591 217,172.5C 215.493,171.445 213.993,170.445 212.5,169.5C 214.287,168.183 215.954,168.516 217.5,170.5C 218.386,169.675 218.719,168.675 218.5,167.5C 221.596,166.907 223.929,167.907 225.5,170.5C 226.548,169.617 227.715,168.95 229,168.5C 230.63,169.713 232.464,170.546 234.5,171C 229.464,172.85 229.464,175.017 234.5,177.5C 236.046,176.316 237.713,175.316 239.5,174.5C 238.174,174.795 236.841,174.295 235.5,173C 237.653,172.901 239.319,172.067 240.5,170.5 Z"/></g>
<g><path style="opacity:1" fill="#7dcea0 " d="M 230.5,177.5 C 228.438,177.128 226.771,176.795 225.5,176.5C 225.631,175.761 225.464,175.094 225,174.5C 224.282,175.451 223.449,175.617 222.5,175C 224.125,174.147 224.458,173.147 223.5,172C 225.473,171.505 227.473,171.338 229.5,171.5C 229.517,173.565 229.85,175.565 230.5,177.5 Z"/></g>
<g><path style="opacity:1" fill="#8116a0 " d="M 218.5,175.5 C 219.75,175.577 220.583,176.244 221,177.5C 222.356,176.62 223.856,176.286 225.5,176.5C 226.771,176.795 228.438,177.128 230.5,177.5C 232.986,178.462 232.986,179.295 230.5,180C 234.306,180.978 237.639,180.145 240.5,177.5C 246.531,179.456 252.531,181.29 258.5,183C 259.211,184.255 260.044,185.421 261,186.5C 262.241,184.579 263.741,184.246 265.5,185.5C 264.833,185.833 264.167,186.167 263.5,186.5C 264.376,187.251 265.376,187.751 266.5,188C 265.72,189.073 265.887,190.24 267,191.5C 268.75,188.006 270.584,187.839 272.5,191C 271.549,191.718 271.383,192.551 272,193.5C 274.634,192.308 275.468,192.974 274.5,195.5C 273.494,198.227 273.828,200.894 275.5,203.5C 276.906,202.332 278.072,202.665 279,204.5C 279.741,203.359 280.575,203.359 281.5,204.5C 282.478,204.023 283.311,203.357 284,202.5C 284.263,205.264 285.763,206.931 288.5,207.5C 289.243,208.908 290.077,210.241 291,211.5C 291.617,210.551 291.451,209.718 290.5,209C 291.5,208.333 292.5,208.333 293.5,209C 292.167,209.667 292.167,210.333 293.5,211C 295.676,211.163 297.509,211.996 299,213.5C 299.333,212.833 299.667,212.167 300,211.5C 301.458,212.747 302.958,212.747 304.5,211.5C 305.197,213.385 306.197,213.718 307.5,212.5C 309.63,213.467 311.63,214.634 313.5,216C 314.696,216.654 314.696,217.154 313.5,217.5C 311.521,216.794 309.854,216.794 308.5,217.5C 310.575,219.83 313.242,220.997 316.5,221C 315.978,221.561 315.645,222.228 315.5,223C 316.414,224.406 317.08,225.906 317.5,227.5C 316.883,227.611 316.383,227.944 316,228.5C 314.527,226.706 313.694,225.04 313.5,223.5C 312.522,223.977 311.689,224.643 311,225.5C 310.641,222.456 309.974,222.122 309,224.5C 306.731,221.946 304.398,221.946 302,224.5C 300.933,223.809 299.766,223.309 298.5,223C 302.361,222.431 302.361,221.598 298.5,220.5C 300.167,218.833 299.833,217.833 297.5,217.5C 295.431,217.785 294.098,218.952 293.5,221C 294.75,222.975 296.083,224.141 297.5,224.5C 296.833,224.833 296.167,225.167 295.5,225.5C 292.525,224.861 289.525,224.361 286.5,224C 287.604,222.869 287.271,222.035 285.5,221.5C 285.094,222.557 285.094,223.891 285.5,225.5C 286.552,225.351 287.552,225.517 288.5,226C 286.717,227.067 286.217,228.567 287,230.5C 287.333,229.5 287.667,228.5 288,227.5C 289.079,229.394 290.413,229.727 292,228.5C 292.456,229.744 291.956,230.577 290.5,231C 293.286,233.06 296.286,234.56 299.5,235.5C 299.351,236.552 299.517,237.552 300,238.5C 302.305,236.924 304.472,237.424 306.5,240C 305.552,240.483 304.552,240.649 303.5,240.5C 303.351,241.552 303.517,242.552 304,243.5C 306.492,245.246 308.659,247.246 310.5,249.5C 306.76,249.241 303.094,249.574 299.5,250.5C 297.803,249.636 296.637,248.303 296,246.5C 295.28,248.112 295.446,249.612 296.5,251C 295.906,251.464 295.239,251.631 294.5,251.5C 293.209,250.527 293.209,249.527 294.5,248.5C 292.428,245.266 290.095,244.933 287.5,247.5C 287.167,247.167 286.833,246.833 286.5,246.5C 287.326,245.549 287.492,244.549 287,243.5C 285.907,245.349 284.574,247.016 283,248.5C 283.195,246.874 283.195,245.207 283,243.5C 282.396,245.686 281.23,245.852 279.5,244C 280.896,239.874 280.23,239.541 277.5,243C 278.167,244 278.833,245 279.5,246C 278.001,244.759 276.335,244.259 274.5,244.5C 275.098,243.205 275.598,241.872 276,240.5C 276.92,240.07 277.753,239.736 278.5,239.5C 278,238.5 277.5,237.5 277,236.5C 275.64,238.504 273.807,239.337 271.5,239C 272.357,238.311 273.023,237.478 273.5,236.5C 268.525,235.922 266.858,233.755 268.5,230C 267.277,227.948 266.277,225.781 265.5,223.5C 263.626,222.065 261.626,220.898 259.5,220C 260.833,219.333 262.167,218.667 263.5,218C 261.405,217.444 261.238,216.944 263,216.5C 264.473,216.903 265.806,217.57 267,218.5C 266.787,216.6 265.953,214.933 264.5,213.5C 267.001,213.489 267.168,212.822 265,211.5C 262.693,210.855 260.193,210.855 257.5,211.5C 254.298,207.899 250.298,205.899 245.5,205.5C 245.338,203.473 245.505,201.473 246,199.5C 247.303,198.888 248.47,198.554 249.5,198.5C 248.289,197.28 248.289,196.113 249.5,195C 248.953,194.075 248.287,193.242 247.5,192.5C 247.412,193.922 247.412,195.422 247.5,197C 245.396,197.791 244.063,199.291 243.5,201.5C 242.646,200.478 241.646,199.645 240.5,199C 242.335,198.072 242.668,196.906 241.5,195.5C 239.195,194.769 237.362,193.436 236,191.5C 234.56,193.046 232.727,193.879 230.5,194C 230.833,194.333 231.167,194.667 231.5,195C 230.5,195.667 229.5,195.667 228.5,195C 229.833,194.333 229.833,193.667 228.5,193C 227.5,192.667 226.5,192.333 225.5,192C 227.329,190.887 228.163,189.387 228,187.5C 227.333,188.833 226.667,188.833 226,187.5C 225.065,190.102 223.232,191.602 220.5,192C 221.747,193.494 221.747,194.994 220.5,196.5C 218.729,195.965 218.396,195.131 219.5,194C 218.5,193.667 217.5,193.333 216.5,193C 217.428,192.612 218.095,191.945 218.5,191C 217.421,187.892 215.754,187.225 213.5,189C 214.654,189.914 214.487,190.747 213,191.5C 211.64,189.496 209.807,188.663 207.5,189C 208.022,189.561 208.355,190.228 208.5,191C 207.564,193.901 206.397,194.068 205,191.5C 203.333,191.5 201.667,191.5 200,191.5C 199.219,190.056 199.386,188.723 200.5,187.5C 201.541,189.991 202.374,189.991 203,187.5C 204.049,188.517 205.216,188.684 206.5,188C 205.273,186.413 205.606,185.079 207.5,184C 205.616,183.784 203.949,183.117 202.5,182C 203.167,181.667 203.833,181.333 204.5,181C 202.167,180.667 199.833,180.333 197.5,180C 200.279,179.851 200.779,179.017 199,177.5C 198.333,178.833 197.667,178.833 197,177.5C 194.973,178.212 193.973,179.212 194,180.5C 193.055,180.095 192.388,179.428 192,178.5C 190.837,180.285 190.17,182.285 190,184.5C 189.632,183.09 188.799,182.09 187.5,181.5C 187.693,182.688 187.193,184.022 186,185.5C 185.137,183.251 185.637,181.418 187.5,180C 186.395,178.414 185.061,177.248 183.5,176.5C 191.063,176.772 198.397,176.105 205.5,174.5C 205.833,173.833 206.167,173.167 206.5,172.5C 209.166,170.865 211.833,171.365 214.5,174C 214.167,174.333 213.833,174.667 213.5,175C 215.134,175.494 216.801,175.66 218.5,175.5 Z"/></g>
<g><path style="opacity:1" fill="#e37c19" d="M 325.5,220.5 C 324.087,221.991 322.587,222.658 321,222.5C 319.197,220.516 318.197,218.516 318,216.5C 316.798,220.793 317.965,224.293 321.5,227C 320.956,227.717 320.289,228.217 319.5,228.5C 318.508,228.672 317.842,228.338 317.5,227.5C 317.08,225.906 316.414,224.406 315.5,223C 315.645,222.228 315.978,221.561 316.5,221C 313.242,220.997 310.575,219.83 308.5,217.5C 309.854,216.794 311.521,216.794 313.5,217.5C 314.696,217.154 314.696,216.654 313.5,216C 311.63,214.634 309.63,213.467 307.5,212.5C 306.197,213.718 305.197,213.385 304.5,211.5C 302.958,212.747 301.458,212.747 300,211.5C 299.667,212.167 299.333,212.833 299,213.5C 297.509,211.996 295.676,211.163 293.5,211C 292.167,210.333 292.167,209.667 293.5,209C 292.5,208.333 291.5,208.333 290.5,209C 291.451,209.718 291.617,210.551 291,211.5C 290.077,210.241 289.243,208.908 288.5,207.5C 285.763,206.931 284.263,205.264 284,202.5C 283.311,203.357 282.478,204.023 281.5,204.5C 280.575,203.359 279.741,203.359 279,204.5C 278.072,202.665 276.906,202.332 275.5,203.5C 273.828,200.894 273.494,198.227 274.5,195.5C 275.552,195.649 276.552,195.483 277.5,195C 276.549,194.282 276.383,193.449 277,192.5C 277.915,193.328 278.581,194.328 279,195.5C 279.333,195.167 279.667,194.833 280,194.5C 280.7,196.032 281.866,197.032 283.5,197.5C 283.668,196.053 284.334,194.387 285.5,192.5C 286.696,192.846 286.696,193.346 285.5,194C 286.624,194.249 287.624,194.749 288.5,195.5C 286.976,196.693 284.976,198.026 282.5,199.5C 284.056,201.701 285.223,201.701 286,199.5C 287.011,200.337 288.178,200.67 289.5,200.5C 289.351,201.552 289.517,202.552 290,203.5C 291.419,202.54 292.919,201.707 294.5,201C 293.833,200.333 293.167,199.667 292.5,199C 294.929,198.841 297.262,198.508 299.5,198C 299.833,198.333 300.167,198.667 300.5,199C 299.315,200.353 297.981,201.52 296.5,202.5C 297.289,204.488 298.455,204.821 300,203.5C 300.034,205.18 300.201,206.68 300.5,208C 302.076,208.388 303.409,207.888 304.5,206.5C 305.641,205.575 305.641,204.741 304.5,204C 305.333,203.833 306.167,203.667 307,203.5C 309.258,205.378 311.425,206.711 313.5,207.5C 313.998,206.397 314.331,205.397 314.5,204.5C 315.262,205.628 315.929,206.795 316.5,208C 315.167,208.667 313.833,209.333 312.5,210C 314.689,210.677 315.022,211.844 313.5,213.5C 314.723,214.614 316.056,214.781 317.5,214C 316.027,213.29 315.36,212.124 315.5,210.5C 316.552,210.351 317.552,210.517 318.5,211C 317.366,212.016 317.699,212.683 319.5,213C 318.549,213.718 318.383,214.551 319,215.5C 320,214.5 321,213.5 322,212.5C 322.645,213.646 323.478,214.646 324.5,215.5C 323.349,216.731 322.183,216.731 321,215.5C 320.251,216.635 320.417,217.635 321.5,218.5C 323.866,217.016 325.199,217.683 325.5,220.5 Z"/></g>
<g><path style="opacity:1" fill="#f09c46  " d="M 264.5,213.5 C 265.953,214.933 266.787,216.6 267,218.5C 265.806,217.57 264.473,216.903 263,216.5C 261.238,216.944 261.405,217.444 263.5,218C 262.167,218.667 260.833,219.333 259.5,220C 261.626,220.898 263.626,222.065 265.5,223.5C 266.277,225.781 267.277,227.948 268.5,230C 266.858,233.755 268.525,235.922 273.5,236.5C 273.023,237.478 272.357,238.311 271.5,239C 273.807,239.337 275.64,238.504 277,236.5C 277.5,237.5 278,238.5 278.5,239.5C 277.753,239.736 276.92,240.07 276,240.5C 275.598,241.872 275.098,243.205 274.5,244.5C 276.335,244.259 278.001,244.759 279.5,246C 278.833,245 278.167,244 277.5,243C 280.23,239.541 280.896,239.874 279.5,244C 281.23,245.852 282.396,245.686 283,243.5C 283.195,245.207 283.195,246.874 283,248.5C 284.574,247.016 285.907,245.349 287,243.5C 287.492,244.549 287.326,245.549 286.5,246.5C 286.833,246.833 287.167,247.167 287.5,247.5C 290.095,244.933 292.428,245.266 294.5,248.5C 293.209,249.527 293.209,250.527 294.5,251.5C 292.248,250.667 290.081,250.667 288,251.5C 287.667,250.833 287.333,250.167 287,249.5C 286.722,250.416 286.222,251.082 285.5,251.5C 280.438,250.572 275.772,248.906 271.5,246.5C 271.047,245.542 270.381,244.708 269.5,244C 265.221,242.527 261.221,240.527 257.5,238C 253.595,236.641 249.595,235.808 245.5,235.5C 232.722,230.068 219.722,224.901 206.5,220C 203.737,217.626 200.737,215.792 197.5,214.5C 198.978,214.762 200.311,214.429 201.5,213.5C 200.726,212.289 199.893,212.289 199,213.5C 198.837,211.324 198.004,209.491 196.5,208C 196.957,207.586 197.291,207.086 197.5,206.5C 195.415,204.425 193.581,204.425 192,206.5C 190.099,201.35 191.599,200.35 196.5,203.5C 197.086,203.291 197.586,202.957 198,202.5C 201.098,203.302 204.265,203.969 207.5,204.5C 209.122,202.146 210.622,202.146 212,204.5C 213.667,203.167 215.333,203.167 217,204.5C 218,203.167 219,201.833 220,200.5C 220.5,201 221,201.5 221.5,202C 218.833,202.667 218.833,203.333 221.5,204C 219.956,204.29 218.623,204.956 217.5,206C 219.351,206.837 221.184,207.671 223,208.5C 223.115,210.107 222.615,211.607 221.5,213C 221.645,213.772 221.978,214.439 222.5,215C 225.951,215.747 226.284,215.08 223.5,213C 224.715,210.904 225.549,211.071 226,213.5C 226.739,211.779 227.573,210.113 228.5,208.5C 228.207,210.047 228.707,211.714 230,213.5C 231.193,212.022 231.693,210.688 231.5,209.5C 233.79,210.742 235.623,212.408 237,214.5C 238.722,214.038 240.555,213.872 242.5,214C 241.833,213.667 241.167,213.333 240.5,213C 242.519,212.55 244.352,211.717 246,210.5C 246.333,210.833 246.667,211.167 247,211.5C 247.826,209.595 248.993,209.261 250.5,210.5C 249.289,211.72 249.289,212.887 250.5,214C 252.135,214.54 253.468,214.04 254.5,212.5C 255.59,213.391 255.59,214.391 254.5,215.5C 254.846,216.696 255.346,216.696 256,215.5C 256.333,216.833 256.667,218.167 257,219.5C 258.011,218.663 259.178,218.33 260.5,218.5C 260.369,215.633 261.703,213.967 264.5,213.5 Z"/></g>
<g><path style="opacity:1" fill="#f4d03f " d="M 317.5,227.5 C 317.842,228.338 318.508,228.672 319.5,228.5C 320.848,229.186 322.015,230.186 323,231.5C 324.785,230.646 325.951,231.313 326.5,233.5C 326.863,235.911 325.863,237.411 323.5,238C 323.957,238.414 324.291,238.914 324.5,239.5C 323.335,240.584 322.002,241.417 320.5,242C 319.229,244.079 319.229,246.579 320.5,249.5C 318.799,249.966 317.299,249.966 316,249.5C 315.228,250.849 314.061,251.682 312.5,252C 313.737,252.232 314.737,252.732 315.5,253.5C 313.712,253.785 312.045,253.452 310.5,252.5C 311.791,251.473 311.791,250.473 310.5,249.5C 308.659,247.246 306.492,245.246 304,243.5C 303.517,242.552 303.351,241.552 303.5,240.5C 304.552,240.649 305.552,240.483 306.5,240C 304.472,237.424 302.305,236.924 300,238.5C 299.517,237.552 299.351,236.552 299.5,235.5C 296.286,234.56 293.286,233.06 290.5,231C 291.956,230.577 292.456,229.744 292,228.5C 290.413,229.727 289.079,229.394 288,227.5C 287.667,228.5 287.333,229.5 287,230.5C 286.217,228.567 286.717,227.067 288.5,226C 287.552,225.517 286.552,225.351 285.5,225.5C 285.094,223.891 285.094,222.557 285.5,221.5C 287.271,222.035 287.604,222.869 286.5,224C 289.525,224.361 292.525,224.861 295.5,225.5C 296.167,225.167 296.833,224.833 297.5,224.5C 296.083,224.141 294.75,222.975 293.5,221C 294.098,218.952 295.431,217.785 297.5,217.5C 299.833,217.833 300.167,218.833 298.5,220.5C 302.361,221.598 302.361,222.431 298.5,223C 299.766,223.309 300.933,223.809 302,224.5C 304.398,221.946 306.731,221.946 309,224.5C 309.974,222.122 310.641,222.456 311,225.5C 311.689,224.643 312.522,223.977 313.5,223.5C 313.694,225.04 314.527,226.706 316,228.5C 316.383,227.944 316.883,227.611 317.5,227.5 Z"/></g>
<g><path style="opacity:1" fill="#e37c19" d="M 325.5,206.5 C 329.765,209.249 333.931,212.249 338,215.5C 339.989,219.355 341.823,223.355 343.5,227.5C 342.036,233.891 340.369,240.224 338.5,246.5C 334.566,247.36 330.566,247.693 326.5,247.5C 328.144,246.684 329.31,245.35 330,243.5C 330.333,243.833 330.667,244.167 331,244.5C 331.483,243.552 331.649,242.552 331.5,241.5C 335.945,241.499 337.278,239.499 335.5,235.5C 337.106,233.41 337.606,231.076 337,228.5C 336.667,229.167 336.333,229.833 336,230.5C 335.15,229.576 334.15,229.576 333,230.5C 331.779,229.728 330.779,228.728 330,227.5C 328.541,229.432 327.375,231.432 326.5,233.5C 325.951,231.313 324.785,230.646 323,231.5C 322.015,230.186 320.848,229.186 319.5,228.5C 320.289,228.217 320.956,227.717 321.5,227C 317.965,224.293 316.798,220.793 318,216.5C 318.197,218.516 319.197,220.516 321,222.5C 322.587,222.658 324.087,221.991 325.5,220.5C 326.376,220.631 327.043,220.298 327.5,219.5C 326.998,218.284 326.665,217.117 326.5,216C 327.308,215.692 327.975,215.192 328.5,214.5C 326.055,214.308 324.055,212.808 322.5,210C 324.056,209.28 325.056,208.113 325.5,206.5 Z"/></g>
<g><path style="opacity:1" fill="#f4d03f " d="M 326.5,247.5 C 324.821,247.892 323.154,248.392 321.5,249C 322.624,249.249 323.624,249.749 324.5,250.5C 323.37,251.622 322.703,252.956 322.5,254.5C 321.791,255.404 320.791,255.737 319.5,255.5C 315.107,255.543 314.774,255.043 318.5,254C 317.552,253.517 316.552,253.351 315.5,253.5C 314.737,252.732 313.737,252.232 312.5,252C 314.061,251.682 315.228,250.849 316,249.5C 317.299,249.966 318.799,249.966 320.5,249.5C 319.229,246.579 319.229,244.079 320.5,242C 322.002,241.417 323.335,240.584 324.5,239.5C 324.291,238.914 323.957,238.414 323.5,238C 325.863,237.411 326.863,235.911 326.5,233.5C 327.375,231.432 328.541,229.432 330,227.5C 330.779,228.728 331.779,229.728 333,230.5C 334.15,229.576 335.15,229.576 336,230.5C 336.333,229.833 336.667,229.167 337,228.5C 337.606,231.076 337.106,233.41 335.5,235.5C 337.278,239.499 335.945,241.499 331.5,241.5C 331.649,242.552 331.483,243.552 331,244.5C 330.667,244.167 330.333,243.833 330,243.5C 329.31,245.35 328.144,246.684 326.5,247.5 Z"/></g>
<g><path style="opacity:1" fill="#f7ca93" d="M 245.5,235.5 C 249.595,235.808 253.595,236.641 257.5,238C 261.221,240.527 265.221,242.527 269.5,244C 270.381,244.708 271.047,245.542 271.5,246.5C 262.43,243.594 253.764,239.927 245.5,235.5 Z"/></g>
<g><path style="opacity:1" fill="#f7ca93" d="M 338.5,246.5 C 334.891,252.305 329.558,254.971 322.5,254.5C 322.703,252.956 323.37,251.622 324.5,250.5C 323.624,249.749 322.624,249.249 321.5,249C 323.154,248.392 324.821,247.892 326.5,247.5C 330.566,247.693 334.566,247.36 338.5,246.5 Z"/></g>
<g><path style="opacity:1" fill="#f7ca93" d="M 310.5,249.5 C 311.791,250.473 311.791,251.473 310.5,252.5C 312.045,253.452 313.712,253.785 315.5,253.5C 316.552,253.351 317.552,253.517 318.5,254C 314.774,255.043 315.107,255.543 319.5,255.5C 317.866,256.161 316.033,256.494 314,256.5C 308.169,255.972 302.336,255.472 296.5,255C 292.386,254.885 288.719,253.718 285.5,251.5C 286.222,251.082 286.722,250.416 287,249.5C 287.333,250.167 287.667,250.833 288,251.5C 290.081,250.667 292.248,250.667 294.5,251.5C 295.239,251.631 295.906,251.464 296.5,251C 295.446,249.612 295.28,248.112 296,246.5C 296.637,248.303 297.803,249.636 299.5,250.5C 303.094,249.574 306.76,249.241 310.5,249.5 Z"/></g>
</svg>
